<?xml version="1.0" encoding="iso-8859-1"?>
<!-- Generator: Adobe Illustrator 19.0.0, SVG Export Plug-In . SVG Version: 6.00 Build 0)  -->
<svg version="1.1" id="Capa_1" xmlns="http://www.w3.org/2000/svg" xmlns:xlink="http://www.w3.org/1999/xlink" x="0px" y="0px"
	 viewBox="0 0 512 512" style="enable-background:new 0 0 512 512;" xml:space="preserve">
<g>
	<g>
		<g>
			<path d="M10,487.866h492c5.522,0,10-4.477,10-10H0C0,483.389,4.477,487.866,10,487.866z"/>
			<path d="M502,219.934h-4.523c4.492-16.149,6.92-34.664,6.92-53.543c0-30.438-13.79-45.987-25.358-53.67
				c-4.986-3.312-10.389-5.701-15.829-7.304c14.048-21.445,8.23-52.807,7.945-54.282c-0.779-4.027-3.938-7.169-7.968-7.928
				c-1.635-0.309-40.275-7.298-61.216,13.643c-13.082,13.082-15.262,33.075-14.981,46.634c-0.916-0.123-1.857-0.221-2.821-0.293
				c-14.494-14.901-35.523-19.329-50.054-17.395c0.283-13.56-1.893-33.567-14.982-46.657c-20.94-20.94-59.581-13.95-61.216-13.642
				c-4.035,0.76-7.195,3.909-7.97,7.941c-0.264,1.371-5.278,28.6,5.327,49.675c-1.413-1.477-3.265-2.528-5.364-2.923
				c-1.636-0.309-40.277-7.295-61.216,13.642c-7.621,7.621-11.532,17.585-13.423,27.258c-4.667-4.845-9.702-8.281-14.213-10.682
				c-12.235-6.513-25.827-8.247-36.048-6.895c0.285-13.561-1.889-33.573-14.981-46.666C89.088,35.908,50.448,42.898,48.813,43.205
				c-4.035,0.759-7.195,3.909-7.97,7.941c-0.284,1.473-6.053,32.797,7.965,54.264c-5.446,1.603-10.856,3.995-15.848,7.31
				c-11.568,7.683-25.358,23.232-25.358,53.67c0,18.88,2.428,37.395,6.92,53.543H10c-5.523,0-10,4.477-10,10v247.932l512,0.001
				V229.934C512,224.411,507.522,219.934,502,219.934z M416.113,70.989c8.799-8.8,25.541-9.724,36.283-8.975
				c0.802,10.77-0.063,27.511-8.927,36.15c-3.02,2.944-6.999,5.06-11.492,6.511c-0.067,0.02-0.134,0.04-0.201,0.061
				c-7.486,2.376-16.374,2.927-24.648,2.382C406.399,96.362,407.357,79.745,416.113,70.989z M378.726,123.11
				c0.209-0.011,0.399-0.019,0.564-0.024c3.762-0.116,6.855,0.327,8.64,1.078c6.718,2.826,17.146,6.127,24.426,6.127
				c7.279,0,17.707-3.3,24.425-6.126c0.078-0.033,0.166-0.064,0.249-0.096c0.512-0.155,1.026-0.306,1.536-0.475
				c6.007-1.492,18.822-1.245,29.408,5.787c10.898,7.237,16.423,19.689,16.423,37.009c0,19.302-2.742,38.029-7.784,53.543H348.099
				c-0.004-0.011-0.008-0.022-0.012-0.034c-0.053-0.163-0.102-0.331-0.154-0.495c-0.283-0.885-0.561-1.778-0.83-2.683
				c-0.111-0.375-0.217-0.758-0.325-1.137c-0.203-0.706-0.404-1.415-0.598-2.132c-0.116-0.432-0.228-0.869-0.342-1.304
				c-0.176-0.678-0.35-1.36-0.519-2.047c-0.112-0.458-0.222-0.919-0.33-1.38c-0.161-0.686-0.318-1.376-0.471-2.07
				c-0.102-0.463-0.204-0.926-0.302-1.393c-0.152-0.72-0.298-1.446-0.441-2.175c-0.088-0.446-0.177-0.889-0.262-1.338
				c-0.153-0.811-0.297-1.629-0.439-2.449c-0.065-0.374-0.134-0.744-0.196-1.119c-0.199-1.198-0.39-2.403-0.566-3.619
				c-0.013-0.089-0.024-0.179-0.037-0.268c-0.162-1.127-0.315-2.261-0.457-3.402c-0.052-0.413-0.097-0.831-0.146-1.246
				c-0.097-0.824-0.193-1.649-0.28-2.479c-0.051-0.483-0.096-0.969-0.143-1.454c-0.075-0.774-0.148-1.549-0.214-2.328
				c-0.043-0.508-0.083-1.017-0.123-1.527c-0.059-0.766-0.114-1.533-0.164-2.303c-0.034-0.516-0.067-1.032-0.096-1.549
				c-0.045-0.787-0.084-1.577-0.12-2.368c-0.023-0.495-0.047-0.99-0.066-1.487c-0.033-0.866-0.057-1.736-0.079-2.606
				c-0.011-0.422-0.026-0.843-0.034-1.266c-0.025-1.292-0.039-2.587-0.039-3.885c0-0.921,0.024-1.822,0.058-2.716
				c0.009-0.219,0.016-0.438,0.027-0.654c0.039-0.811,0.092-1.61,0.16-2.398c0.026-0.3,0.057-0.593,0.087-0.888
				c0.051-0.505,0.11-1.003,0.172-1.498c0.085-0.664,0.18-1.315,0.285-1.954c0.039-0.24,0.078-0.48,0.12-0.718
				c5.044-28.155,29.653-31.921,36.889-32.417C378.316,123.135,378.524,123.119,378.726,123.11z M268.714,44.351
				c9.702-0.681,26.975-0.372,36.276,8.928c8.747,8.747,9.712,25.341,8.988,36.09c-13.421,0.833-28.403-1.121-36.321-8.89
				C268.825,71.81,267.934,55.109,268.714,44.351z M257.938,87.739c-0.051,0.015-0.103,0.028-0.154,0.043
				c-0.038-0.165-0.085-0.326-0.131-0.488C257.747,87.442,257.841,87.591,257.938,87.739z M259.216,108.428
				c10.354-4.347,21.218-3.611,25.108-1.975c6.718,2.826,17.146,6.127,24.425,6.127c7.28,0,17.708-3.3,24.426-6.127
				c3.864-1.623,13.201-1.788,22.532,1.673c-3.296,1.406-6.539,3.121-9.641,5.182c-1.013,0.673-2.043,1.407-3.079,2.199
				c-0.025,0.019-0.051,0.038-0.077,0.058c-0.517,0.397-1.036,0.81-1.555,1.238c-0.017,0.014-0.036,0.028-0.053,0.042
				c-0.085,0.07-0.171,0.145-0.256,0.217c-9.014,7.545-18.008,19.92-20.213,39.813c-0.008,0.072-0.015,0.145-0.023,0.217
				c-0.069,0.641-0.133,1.287-0.188,1.943c-0.02,0.234-0.036,0.472-0.054,0.708c-0.04,0.532-0.08,1.064-0.11,1.607
				c-0.024,0.419-0.039,0.847-0.057,1.272c-0.016,0.394-0.037,0.784-0.048,1.184c-0.024,0.849-0.038,1.709-0.038,2.584
				c0,2.1,0.041,4.192,0.1,6.28c0.014,0.492,0.029,0.982,0.046,1.473c0.072,2.059,0.165,4.112,0.294,6.152
				c0.014,0.22,0.033,0.438,0.048,0.658c0.124,1.876,0.276,3.74,0.448,5.596c0.043,0.465,0.085,0.931,0.13,1.395
				c0.198,1.996,0.418,3.98,0.67,5.946c0.043,0.338,0.093,0.672,0.138,1.009c0.231,1.737,0.484,3.46,0.757,5.169
				c0.066,0.415,0.129,0.832,0.198,1.246c0.318,1.914,0.661,3.807,1.03,5.68c0.078,0.396,0.162,0.786,0.242,1.18
				c0.336,1.646,0.69,3.275,1.066,4.885c0.078,0.336,0.152,0.675,0.232,1.009c0.434,1.813,0.896,3.598,1.379,5.358
				c0.046,0.167,0.084,0.341,0.13,0.507h-36.717c0.046-0.615,0.08-1.233,0.121-1.849c0.026-0.39,0.053-0.78,0.077-1.171
				c0.123-2.02,0.22-4.047,0.288-6.08c0.012-0.36,0.02-0.721,0.03-1.081c0.06-2.122,0.1-4.248,0.1-6.378
				c0-0.883-0.014-1.751-0.037-2.608c-0.01-0.389-0.029-0.769-0.044-1.153c-0.018-0.441-0.033-0.882-0.057-1.316
				c-0.028-0.523-0.063-1.037-0.1-1.551c-0.018-0.251-0.035-0.504-0.055-0.752c-0.051-0.639-0.108-1.27-0.172-1.894
				c-0.007-0.066-0.013-0.131-0.02-0.197c-1.845-17.768-8.796-29.541-16.433-37.256c-0.079-0.08-0.158-0.158-0.237-0.237
				c-0.206-0.206-0.412-0.412-0.619-0.612c-0.316-0.306-0.63-0.604-0.943-0.892c-0.012-0.011-0.024-0.022-0.037-0.033
				c-0.26-0.239-0.52-0.474-0.777-0.701c-0.034-0.03-0.071-0.057-0.105-0.087c-0.787-0.69-1.575-1.343-2.36-1.956
				c-0.044-0.034-0.088-0.068-0.132-0.103c-0.805-0.624-1.605-1.207-2.398-1.755c-0.108-0.075-0.216-0.148-0.325-0.221
				c-0.169-0.116-0.34-0.235-0.509-0.347c-0.585-0.389-1.177-0.762-1.773-1.125c-0.206-0.126-0.413-0.244-0.619-0.367
				c-0.614-0.364-1.233-0.715-1.857-1.053c-0.246-0.133-0.491-0.268-0.737-0.398c-0.653-0.342-1.312-0.666-1.974-0.981
				c-0.309-0.147-0.618-0.293-0.928-0.434c-0.681-0.309-1.364-0.606-2.051-0.887c-0.298-0.122-0.596-0.236-0.895-0.352
				c-0.573-0.224-1.148-0.438-1.724-0.644c-0.221-0.078-0.442-0.163-0.663-0.238c-0.788-0.271-1.578-0.518-2.37-0.755
				c-0.091-0.027-0.182-0.061-0.273-0.087C256.673,131.965,258.868,119.289,259.216,108.428z M202.837,107.973
				c8.776-8.776,25.454-9.719,36.195-8.98c0.162,2.309,0.262,5.051,0.204,8.004c-0.006,0.272-0.011,0.54-0.02,0.819
				c-0.006,0.213-0.018,0.431-0.026,0.645c-0.276,6.602-1.454,14.784-5.053,21.323c-0.009,0.016-0.019,0.032-0.029,0.048
				c-0.349,0.631-0.721,1.245-1.116,1.842c-0.142,0.213-0.301,0.414-0.449,0.622c-0.288,0.408-0.573,0.817-0.886,1.205
				c-0.49,0.604-1.004,1.187-1.555,1.738v0.001c-0.524,0.524-1.079,1.016-1.656,1.485c-0.313,0.253-0.655,0.489-0.988,0.731
				c-0.275,0.201-0.542,0.411-0.826,0.601c-0.439,0.293-0.908,0.567-1.377,0.84c-0.204,0.119-0.401,0.247-0.609,0.362
				c-0.531,0.292-1.09,0.564-1.656,0.832c-0.828,0.392-1.675,0.756-2.547,1.085c-1.449,0.362-2.807,0.795-4.065,1.289
				c-7.656,2.026-16.103,2.195-22.472,1.755C193.226,134.507,193.546,117.264,202.837,107.973z M174.652,161.149
				c0.001,0.001,0.003,0.001,0.004,0.002c0.014,0.006,0.03,0.012,0.045,0.018c6.719,2.822,17.114,6.106,24.377,6.106
				c7.086,0,17.145-3.126,23.873-5.899c1.006-0.29,2.009-0.607,3.007-0.95c0.542-0.114,1.129-0.214,1.757-0.298
				c0.083-0.008,0.166-0.007,0.249-0.018c4.055-0.507,9.283-0.323,14.676,1.022c0.021,0.005,0.042,0.011,0.063,0.016
				c0.658,0.165,1.318,0.347,1.978,0.548c0.02,0.006,0.041,0.013,0.062,0.019c1.311,0.4,2.623,0.874,3.924,1.423
				c0.05,0.021,0.1,0.041,0.15,0.062c0.601,0.257,1.198,0.534,1.792,0.826c0.105,0.052,0.21,0.104,0.315,0.156
				c0.574,0.288,1.144,0.592,1.709,0.914c0.104,0.059,0.206,0.121,0.31,0.182c0.559,0.326,1.113,0.665,1.659,1.025
				c0.032,0.021,0.064,0.04,0.095,0.061c0.659,0.438,1.296,0.896,1.915,1.371c0.292,0.224,0.573,0.471,0.86,0.706
				c0.32,0.263,0.647,0.52,0.956,0.794c0.23,0.204,0.446,0.421,0.67,0.63c0.32,0.3,0.641,0.599,0.948,0.911
				c0.262,0.266,0.512,0.544,0.765,0.819c0.249,0.271,0.498,0.542,0.738,0.821c0.264,0.308,0.52,0.624,0.773,0.943
				c0.208,0.262,0.414,0.525,0.615,0.794c0.258,0.344,0.51,0.694,0.755,1.05c0.176,0.255,0.348,0.516,0.518,0.777
				c0.249,0.382,0.495,0.767,0.73,1.161c0.144,0.241,0.28,0.49,0.419,0.735c0.241,0.428,0.483,0.855,0.709,1.296
				c0.101,0.197,0.193,0.402,0.291,0.601c0.803,1.638,1.505,3.37,2.105,5.195c0.073,0.224,0.154,0.441,0.224,0.668
				c0.15,0.481,0.284,0.976,0.42,1.47c0.09,0.328,0.184,0.654,0.268,0.988c0.117,0.463,0.223,0.936,0.328,1.41
				c0.086,0.387,0.171,0.774,0.249,1.168c0.09,0.452,0.173,0.911,0.252,1.372c0.075,0.44,0.146,0.885,0.212,1.334
				c0.065,0.439,0.127,0.881,0.183,1.328c0.063,0.504,0.116,1.017,0.167,1.531c0.041,0.413,0.085,0.824,0.118,1.243
				c0.049,0.607,0.083,1.227,0.116,1.848c0.019,0.348,0.044,0.69,0.058,1.042c0.038,0.985,0.061,1.984,0.061,3.002
				c0,1.903-0.036,3.801-0.09,5.696c-0.012,0.448-0.026,0.896-0.041,1.344c-0.065,1.876-0.149,3.748-0.265,5.61
				c-0.011,0.17-0.026,0.338-0.036,0.507c-0.074,1.139-0.176,2.269-0.27,3.401H127.739c-0.094-1.132-0.196-2.262-0.27-3.401
				c-0.011-0.169-0.026-0.338-0.037-0.507c-0.117-1.862-0.2-3.734-0.265-5.61c-0.016-0.448-0.029-0.896-0.041-1.344
				c-0.053-1.895-0.09-3.794-0.09-5.696c0-16.756,5.658-29.01,16.818-36.422C155.369,159.305,169.807,159.109,174.652,161.149z
				 M59.609,62.061c9.708-0.682,26.976-0.372,36.277,8.928c8.747,8.748,9.712,25.342,8.988,36.091
				c-13.418,0.836-28.399-1.121-36.321-8.892C59.72,89.521,58.829,72.819,59.609,62.061z M44.027,129.379
				c11.799-7.835,26.366-7.246,31.193-5.216c6.718,2.826,17.145,6.127,24.425,6.127c7.28,0,17.708-3.3,24.425-6.126
				c3.949-1.661,16.095-2.223,27.592,3.898c5.561,2.96,9.985,6.973,13.248,12.001c-0.038,0.001-0.076,0.005-0.114,0.006
				c-0.598,0.022-1.201,0.052-1.809,0.094c-0.017,0.001-0.034,0.003-0.051,0.004c-0.585,0.04-1.175,0.091-1.769,0.149
				c-0.178,0.017-0.356,0.039-0.535,0.058c-0.44,0.047-0.881,0.098-1.325,0.155c-0.208,0.027-0.415,0.055-0.624,0.084
				c-0.426,0.059-0.854,0.123-1.283,0.192c-0.207,0.033-0.414,0.066-0.621,0.101c-0.465,0.079-0.932,0.165-1.4,0.255
				c-0.165,0.032-0.329,0.061-0.495,0.094c-1.272,0.256-2.551,0.553-3.834,0.894c-0.178,0.047-0.356,0.099-0.534,0.148
				c-0.461,0.126-0.921,0.257-1.383,0.395c-0.215,0.064-0.43,0.131-0.645,0.198c-0.434,0.135-0.868,0.275-1.302,0.42
				c-0.215,0.072-0.43,0.143-0.645,0.218c-0.463,0.16-0.925,0.328-1.387,0.5c-0.177,0.066-0.354,0.129-0.53,0.196
				c-1.273,0.487-2.539,1.019-3.797,1.598c-0.188,0.087-0.376,0.179-0.564,0.268c-0.438,0.207-0.874,0.418-1.308,0.636
				c-0.223,0.112-0.445,0.227-0.666,0.342c-0.405,0.21-0.809,0.425-1.212,0.646c-0.222,0.122-0.444,0.243-0.666,0.368
				c-0.421,0.237-0.839,0.483-1.255,0.731c-0.192,0.114-0.384,0.226-0.575,0.342c-0.602,0.369-1.199,0.746-1.792,1.14
				c-11.748,7.803-25.753,23.346-25.753,53.082c0,2.129,0.04,4.254,0.1,6.376c0.01,0.362,0.018,0.723,0.03,1.084
				c0.068,2.032,0.165,4.058,0.288,6.077c0.024,0.392,0.051,0.783,0.077,1.175c0.041,0.616,0.075,1.233,0.121,1.847H35.387
				c-5.042-15.516-7.784-34.244-7.784-53.546C27.603,149.07,33.128,136.618,44.027,129.379z M492,467.866H20v-62.644h472V467.866z
				 M492,385.222H20v-62.644h472V385.222z M492,302.578H20v-62.644h472V302.578z"/>
		</g>
	</g>
</g>
<g>
	<g>
		<path d="M89.169,271.256l5.552-5.552c3.907-3.906,3.907-10.237,0.002-14.142c-3.906-3.905-10.236-3.905-14.143,0.001l-5.551,5.551
			l-5.551-5.551c-3.904-3.905-10.234-3.905-14.143-0.001c-3.905,3.905-3.905,10.237,0,14.142l5.552,5.552l-5.552,5.552
			c-3.905,3.905-3.905,10.237,0,14.142c1.953,1.953,4.512,2.929,7.071,2.929s5.118-0.977,7.071-2.929l5.551-5.551l5.551,5.551
			c1.953,1.953,4.512,2.929,7.071,2.929c2.559,0,5.118-0.977,7.071-2.929c3.905-3.905,3.905-10.237,0-14.142L89.169,271.256z"/>
	</g>
</g>
<g>
	<g>
		<path d="M451.111,271.256l5.552-5.552c3.907-3.906,3.907-10.237,0.002-14.142c-3.906-3.905-10.236-3.905-14.143,0.001
			l-5.551,5.551l-5.551-5.551c-3.905-3.905-10.235-3.905-14.143-0.001c-3.905,3.905-3.905,10.237,0,14.142l5.552,5.552l-5.552,5.552
			c-3.905,3.905-3.905,10.237,0,14.142c1.953,1.953,4.512,2.929,7.071,2.929c2.56,0,5.118-0.977,7.071-2.929l5.551-5.551
			l5.551,5.551c1.953,1.953,4.512,2.929,7.071,2.929s5.118-0.977,7.071-2.929c3.905-3.905,3.905-10.237,0-14.142L451.111,271.256z"
			/>
	</g>
</g>
<g>
	<g>
		<path d="M89.169,352.901l5.552-5.552c3.907-3.905,3.907-10.237,0.002-14.142c-3.906-3.905-10.236-3.905-14.143,0l-5.551,5.551
			l-5.551-5.551c-3.904-3.905-10.234-3.905-14.143,0c-3.905,3.905-3.905,10.237,0,14.142l5.552,5.552l-5.552,5.552
			c-3.905,3.905-3.905,10.237,0,14.142c1.953,1.953,4.512,2.929,7.071,2.929s5.118-0.977,7.071-2.929l5.551-5.551l5.551,5.551
			c1.953,1.953,4.512,2.929,7.071,2.929c2.559,0,5.118-0.977,7.071-2.929c3.905-3.905,3.905-10.237,0-14.142L89.169,352.901z"/>
	</g>
</g>
<g>
	<g>
		<path d="M451.111,352.901l5.552-5.552c3.907-3.905,3.907-10.237,0.002-14.142c-3.906-3.905-10.236-3.905-14.143,0l-5.551,5.551
			l-5.551-5.551c-3.905-3.905-10.235-3.905-14.143,0c-3.905,3.905-3.905,10.237,0,14.142l5.552,5.552l-5.552,5.552
			c-3.905,3.905-3.905,10.237,0,14.142c1.953,1.953,4.512,2.929,7.071,2.929c2.56,0,5.118-0.977,7.071-2.929l5.551-5.551
			l5.551,5.551c1.953,1.953,4.512,2.929,7.071,2.929s5.118-0.977,7.071-2.929c3.905-3.905,3.905-10.237,0-14.142L451.111,352.901z"
			/>
	</g>
</g>
<g>
	<g>
		<path d="M89.169,436.544l5.552-5.552c3.905-3.905,3.905-10.237,0-14.142c-3.906-3.905-10.236-3.905-14.143,0.001l-5.551,5.551
			l-5.551-5.551c-3.904-3.905-10.234-3.905-14.143-0.001c-3.905,3.905-3.905,10.237,0,14.142l5.552,5.552l-5.552,5.552
			c-3.903,3.905-3.903,10.237,0.002,14.142c1.953,1.953,4.512,2.929,7.071,2.929s5.118-0.977,7.071-2.929l5.551-5.551l5.551,5.551
			c1.953,1.953,4.512,2.929,7.071,2.929c2.559,0,5.118-0.977,7.071-2.929c3.905-3.905,3.905-10.237,0-14.142L89.169,436.544z"/>
	</g>
</g>
<g>
	<g>
		<path d="M451.111,436.544l5.552-5.552c3.905-3.905,3.905-10.237,0-14.142c-3.906-3.905-10.236-3.905-14.143,0.001l-5.551,5.551
			l-5.551-5.551c-3.905-3.905-10.235-3.905-14.143-0.001c-3.905,3.905-3.905,10.237,0,14.142l5.552,5.552l-5.552,5.552
			c-3.903,3.905-3.903,10.237,0.002,14.142c1.953,1.953,4.512,2.929,7.071,2.929c2.56,0,5.118-0.977,7.071-2.929l5.551-5.551
			l5.551,5.551c1.953,1.953,4.512,2.929,7.071,2.929s5.118-0.977,7.071-2.929c3.905-3.905,3.905-10.237,0-14.142L451.111,436.544z"
			/>
	</g>
</g>
<g>
	<g>
		<path d="M383.36,268.62c-0.131-0.64-0.32-1.27-0.57-1.87c-0.25-0.61-0.561-1.19-0.92-1.73c-0.36-0.55-0.78-1.06-1.24-1.52
			c-0.46-0.46-0.97-0.88-1.521-1.24c-0.54-0.36-1.119-0.67-1.729-0.92c-0.6-0.25-1.23-0.44-1.87-0.57c-1.29-0.26-2.62-0.26-3.91,0
			c-0.63,0.13-1.26,0.32-1.87,0.57c-0.6,0.25-1.18,0.56-1.72,0.92c-0.55,0.36-1.06,0.78-1.52,1.24c-0.46,0.46-0.881,0.97-1.25,1.52
			c-0.36,0.54-0.671,1.12-0.921,1.73c-0.25,0.6-0.439,1.23-0.569,1.87c-0.13,0.64-0.19,1.3-0.19,1.95c0,0.66,0.06,1.31,0.19,1.96
			c0.13,0.64,0.319,1.27,0.569,1.87c0.25,0.6,0.561,1.18,0.921,1.72c0.369,0.55,0.79,1.06,1.25,1.52c0.46,0.46,0.97,0.88,1.52,1.25
			c0.54,0.36,1.12,0.67,1.72,0.92c0.61,0.25,1.24,0.44,1.87,0.57c0.65,0.13,1.311,0.19,1.96,0.19c0.65,0,1.31-0.06,1.95-0.19
			s1.271-0.32,1.87-0.57c0.61-0.25,1.189-0.56,1.729-0.92c0.551-0.37,1.06-0.79,1.521-1.25c1.86-1.86,2.93-4.43,2.93-7.07
			C383.56,269.92,383.491,269.26,383.36,268.62z"/>
	</g>
</g>
<g>
	<g>
		<path d="M337.195,260.573H138.441c-5.523,0-10,4.477-10,10s4.477,10,10,10h198.754c5.522,0,10-4.477,10-10
			S342.718,260.573,337.195,260.573z"/>
	</g>
</g>
<g>
	<g>
		<path d="M148.25,434.59c-0.13-0.64-0.32-1.27-0.57-1.87c-0.25-0.6-0.56-1.19-0.92-1.73c-0.37-0.55-0.79-1.06-1.25-1.52
			c-0.46-0.46-0.97-0.88-1.52-1.24c-0.54-0.36-1.12-0.67-1.721-0.92c-0.609-0.25-1.239-0.44-1.87-0.57c-1.3-0.26-2.619-0.26-3.909,0
			c-0.641,0.13-1.271,0.32-1.87,0.57c-0.61,0.25-1.19,0.56-1.73,0.92c-0.55,0.36-1.06,0.78-1.52,1.24
			c-0.46,0.46-0.88,0.97-1.24,1.52c-0.36,0.54-0.67,1.13-0.92,1.73c-0.25,0.6-0.441,1.23-0.57,1.87c-0.13,0.64-0.2,1.3-0.2,1.95
			c0,0.66,0.07,1.31,0.2,1.96c0.13,0.64,0.32,1.26,0.57,1.87c0.25,0.6,0.559,1.18,0.92,1.72c0.36,0.55,0.78,1.06,1.24,1.52
			c0.46,0.47,0.97,0.88,1.52,1.25c0.54,0.36,1.12,0.67,1.73,0.92c0.6,0.25,1.229,0.44,1.87,0.57c0.64,0.13,1.3,0.19,1.949,0.19
			c0.65,0,1.311-0.06,1.96-0.19c0.631-0.13,1.261-0.32,1.87-0.57c0.601-0.25,1.181-0.56,1.721-0.92c0.55-0.37,1.06-0.78,1.52-1.25
			c0.46-0.46,0.88-0.97,1.25-1.52c0.36-0.54,0.67-1.12,0.92-1.72c0.25-0.61,0.44-1.23,0.57-1.87c0.13-0.65,0.189-1.3,0.189-1.96
			C148.439,435.89,148.379,435.23,148.25,434.59z"/>
	</g>
</g>
<g>
	<g>
		<path d="M373.559,426.544H174.805c-5.523,0-10,4.477-10,10s4.477,10,10,10h198.754c5.522,0,10-4.477,10-10
			S379.081,426.544,373.559,426.544z"/>
	</g>
</g>
<g>
</g>
<g>
</g>
<g>
</g>
<g>
</g>
<g>
</g>
<g>
</g>
<g>
</g>
<g>
</g>
<g>
</g>
<g>
</g>
<g>
</g>
<g>
</g>
<g>
</g>
<g>
</g>
<g>
</g>
</svg>
