<svg xmlns="http://www.w3.org/2000/svg" style="position:absolute; width: 0; height: 0"><symbol viewBox="0 0 512.001 512.001" id="icon-001-apple"><path d="M346.811 108.667c-33.686 0-65.983 13.135-90.811 36.506-24.828-23.371-57.126-36.506-90.811-36.506-75.035 0-136.081 64.149-136.081 143 0 60.171 20.02 124.552 54.926 176.634C119.685 481.493 163.975 512 205.55 512c19.622 0 36.544-3.348 50.451-9.966 13.906 6.618 30.828 9.966 50.45 9.966 41.574 0 85.865-30.507 121.515-83.699 34.906-52.082 54.926-116.463 54.926-176.634 0-78.851-61.046-143-136.081-143z" fill="#fc0023"></path><path d="M256 145.173v356.862c13.906 6.618 30.828 9.966 50.45 9.966 41.574 0 85.865-30.507 121.515-83.699 34.906-52.082 54.926-116.463 54.926-176.634 0-78.851-61.046-143-136.081-143-33.685-.001-65.983 13.134-90.81 36.505" fill="#cc001c"></path><path fill="#816244" d="M270.641 182.615H240.64V59.767L217.775 13.23 244.7 0l25.941 52.795z"></path><path d="M440.573 56.492l-.206-13.791-13.189-4.034c-.786-.24-19.523-5.905-43.576-7.524-34.056-2.294-61.626 4.289-81.932 19.562-20.352 15.307-34.242 40.17-41.286 73.899-4.967 23.782-4.577 43.569-4.559 44.4l.311 13.558 12.936 4.071c.78.246 19.398 6.039 43.337 7.777 4.66.338 9.199.507 13.615.507 27.716 0 50.589-6.655 68.131-19.848 20.321-15.285 34.301-40.187 41.551-74.016 5.114-23.861 4.88-43.727 4.867-44.561z" fill="#60dd4d"></path><path d="M256.137 182.561l12.936 4.071c.78.246 19.398 6.039 43.337 7.777 4.66.338 9.199.507 13.615.507 27.716 0 50.589-6.655 68.131-19.848 20.321-15.285 34.301-40.187 41.551-74.016 5.114-23.86 4.879-43.727 4.867-44.561l-.206-13.791" fill="#00c47a"></path></symbol><symbol viewBox="0 0 447.243 447.243" id="icon-001-arrow"><path d="M420.361 192.229a31.967 31.967 0 0 0-5.535-.41H99.305l6.88-3.2a63.998 63.998 0 0 0 18.08-12.8l88.48-88.48c11.653-11.124 13.611-29.019 4.64-42.4-10.441-14.259-30.464-17.355-44.724-6.914a32.018 32.018 0 0 0-3.276 2.754l-160 160c-12.504 12.49-12.515 32.751-.025 45.255l.025.025 160 160c12.514 12.479 32.775 12.451 45.255-.063a32.084 32.084 0 0 0 2.745-3.137c8.971-13.381 7.013-31.276-4.64-42.4l-88.32-88.64a64.002 64.002 0 0 0-16-11.68l-9.6-4.32h314.24c16.347.607 30.689-10.812 33.76-26.88 2.829-17.445-9.019-33.88-26.464-36.71z"></path></symbol><symbol viewBox="0 0 46.02 46.02" id="icon-001-move-to-next"><path d="M14.757 46.02a5.688 5.688 0 0 1-3.929-1.569 5.705 5.705 0 0 1-.204-8.063L23.382 22.97 10.637 9.645a5.703 5.703 0 0 1 8.242-7.884l16.505 17.253a5.707 5.707 0 0 1 .013 7.872L18.893 44.247a5.699 5.699 0 0 1-4.136 1.773z"></path></symbol><symbol viewBox="0 0 511.99 511.99" id="icon-001-package"><path d="M446.822 213.631l-190.827-63.256-190.827 63.256L.01 317.129l59.984 19.884V447.02l196 64.97 196-64.97V337.013l59.984-19.884zm-57.5 12.545l-133.327 44.195-133.327-44.195 133.327-44.195zm-343.52 74.527l35.627-56.592 151.67 50.276-35.626 56.591zm44.193 46.255L210.34 386.85l30.655-48.693v137.256l-151-50.054zm181 128.454V338.156l30.655 48.693 120.345-39.892v78.401zm43.522-124.433l-35.626-56.591 151.67-50.276 35.627 56.592zM240.995 0h30v100.174h-30zM99.915 45.84l25.98-15 50.087 86.75-25.98 15zM336.001 117.6l50.087-86.75 25.98 15-50.087 86.75z"></path></symbol><symbol viewBox="0 0 512 341.3" id="icon-001-right"><path d="M508.9 163.1l-160-160C344.7-1 338-1 333.8 3.1c-4.2 4.2-4.2 10.9 0 15.1L475.6 160H10.7C4.8 160 0 164.8 0 170.7s4.8 10.7 10.7 10.7h464.9L333.8 323.1c-4.2 4.2-4.2 10.9 0 15.1 2.1 2.1 4.8 3.1 7.5 3.1s5.5-1 7.5-3.1l160-160c4.2-4.2 4.2-10.9.1-15.1z"></path></symbol><symbol viewBox="0 0 398.5 398.5" id="icon-002-settings"><path d="M329.624 234.946l-4.664-11.923c11.827-7.634 21.779-17.388 29.606-28.515l11.771 5.151c5.559 2.432 12.037-.102 14.469-5.661l8.525-19.48c2.432-5.559-.101-12.037-5.659-14.469l-11.771-5.151c2.862-13.3 3.275-27.226.857-41.095l11.923-4.664c5.651-2.21 8.439-8.583 6.229-14.234l-7.748-19.799c-2.21-5.651-8.583-8.439-14.234-6.229l-11.923 4.664c-7.634-11.827-17.388-21.779-28.515-29.606l5.151-11.771c2.432-5.559-.101-12.037-5.659-14.469l-19.48-8.525c-5.559-2.432-12.037.101-14.469 5.661l-5.151 11.771c-13.3-2.862-27.226-3.275-41.095-.857l-4.664-11.923c-2.21-5.651-8.583-8.439-14.234-6.229l-19.802 7.747c-5.651 2.21-8.439 8.583-6.229 14.234l4.664 11.923c-11.827 7.634-21.779 17.388-29.606 28.515l-11.771-5.151c-5.559-2.432-12.037.101-14.469 5.659L143.15 90c-2.432 5.559.102 12.037 5.659 14.469l11.771 5.151c-2.862 13.3-3.275 27.226-.857 41.095l-11.923 4.664c-5.651 2.21-8.439 8.583-6.229 14.234l7.747 19.802c2.21 5.651 8.583 8.439 14.234 6.229l11.923-4.664c7.634 11.827 17.388 21.779 28.515 29.606l-5.151 11.771c-2.432 5.559.102 12.037 5.659 14.469l19.48 8.525c5.559 2.432 12.037-.101 14.469-5.659l5.151-11.771c13.3 2.862 27.226 3.275 41.095.857l4.664 11.923c2.21 5.651 8.583 8.439 14.234 6.229l19.802-7.747c5.652-2.214 8.441-8.586 6.231-14.237zm-98.615-88.904c-7.612-19.458 1.992-41.402 21.449-49.014 19.458-7.612 41.402 1.992 49.014 21.449 7.612 19.458-1.992 41.402-21.449 49.014-19.458 7.612-41.402-1.991-49.014-21.449z" fill="#ffe600"></path><path d="M299.614 264.507c-7.127 0-13.867-4.301-16.613-11.32l-2.679-6.861a113.633 113.633 0 0 1-32.647-.686l-2.973 6.787a17.709 17.709 0 0 1-9.827 9.446 17.738 17.738 0 0 1-13.633-.273l-19.473-8.52a17.676 17.676 0 0 1-9.453-9.834 17.707 17.707 0 0 1 .273-13.633l2.966-6.781a113.86 113.86 0 0 1-22.659-23.513L166.042 202a17.76 17.76 0 0 1-13.629-.266 17.67 17.67 0 0 1-9.446-9.834l-7.747-19.801a17.701 17.701 0 0 1 .27-13.633 17.69 17.69 0 0 1 9.834-9.446l6.851-2.679a113.65 113.65 0 0 1 .689-32.647l-6.787-2.973c-8.994-3.941-13.111-14.461-9.18-23.453l8.53-19.487a17.692 17.692 0 0 1 9.83-9.446 17.728 17.728 0 0 1 13.629.273l6.784 2.966a113.86 113.86 0 0 1 23.513-22.659l-2.679-6.854a17.687 17.687 0 0 1 .266-13.626c1.906-4.361 5.4-7.714 9.834-9.453l19.801-7.747c4.441-1.727 9.281-1.647 13.633.273a17.686 17.686 0 0 1 9.446 9.827l2.679 6.861a113.633 113.633 0 0 1 32.647.686l2.973-6.787a17.709 17.709 0 0 1 9.827-9.446c4.434-1.727 9.267-1.626 13.633.273l19.473 8.52a17.676 17.676 0 0 1 9.453 9.834 17.707 17.707 0 0 1-.273 13.633l-2.966 6.781a113.86 113.86 0 0 1 22.659 23.513l6.854-2.679c4.427-1.727 9.267-1.64 13.626.266 4.361 1.906 7.714 5.4 9.453 9.834l7.747 19.801a17.706 17.706 0 0 1-.273 13.633 17.693 17.693 0 0 1-9.827 9.446l-6.861 2.679c1.347 10.841 1.113 21.78-.686 32.647l6.787 2.973a17.709 17.709 0 0 1 9.446 9.827 17.707 17.707 0 0 1-.273 13.633l-8.52 19.473a17.676 17.676 0 0 1-9.834 9.453c-4.427 1.727-9.267 1.626-13.633-.273l-6.781-2.966a113.86 113.86 0 0 1-23.513 22.659l2.679 6.854a17.687 17.687 0 0 1-.266 13.626c-1.906 4.361-5.4 7.714-9.834 9.453l-19.801 7.747a17.848 17.848 0 0 1-6.465 1.218zm-14.913-32.561a6.829 6.829 0 0 1 6.354 4.34l4.666 11.926c.833 2.14 3.246 3.18 5.393 2.353l19.794-7.747a4.157 4.157 0 0 0 2.353-5.386l-4.659-11.919a6.825 6.825 0 0 1 2.654-8.219c10.88-7.026 20.207-16.014 27.727-26.713a6.829 6.829 0 0 1 8.327-2.326l11.767 5.154a4.113 4.113 0 0 0 3.18.06 4.11 4.11 0 0 0 2.301-2.207l8.52-19.473a4.16 4.16 0 0 0-2.147-5.48l-11.767-5.154a6.826 6.826 0 0 1-3.934-7.687c2.753-12.807 3.021-25.76.8-38.487a6.834 6.834 0 0 1 4.239-7.533l11.926-4.666a4.123 4.123 0 0 0 2.294-2.2 4.127 4.127 0 0 0 .06-3.186l-7.747-19.801c-.833-2.147-3.253-3.214-5.386-2.353l-11.92 4.658c-3.014 1.167-6.46.073-8.219-2.654-7.026-10.88-16.014-20.207-26.713-27.727a6.837 6.837 0 0 1-2.326-8.327l5.154-11.767a4.112 4.112 0 0 0 .06-3.18 4.11 4.11 0 0 0-2.207-2.301l-19.473-8.52c-2.099-.893-4.56.039-5.48 2.147l-5.154 11.767c-1.307 2.966-4.514 4.627-7.687 3.934-12.807-2.753-25.754-3.026-38.487-.8-3.154.532-6.347-1.213-7.533-4.239l-4.666-11.926a4.123 4.123 0 0 0-2.2-2.294 4.127 4.127 0 0 0-3.186-.06L211.578 21.7a4.159 4.159 0 0 0-2.354 5.386l4.659 11.919a6.825 6.825 0 0 1-2.654 8.219c-10.88 7.026-20.207 16.014-27.727 26.713a6.86 6.86 0 0 1-8.327 2.326l-11.767-5.154a4.113 4.113 0 0 0-3.18-.06 4.11 4.11 0 0 0-2.297 2.207l-8.527 19.48a4.163 4.163 0 0 0 2.147 5.473l11.769 5.154a6.83 6.83 0 0 1 3.937 7.694c-2.756 12.8-3.026 25.747-.807 38.48a6.837 6.837 0 0 1-4.236 7.533l-11.919 4.666a4.12 4.12 0 0 0-2.301 2.2 4.155 4.155 0 0 0-.063 3.186l7.747 19.801a4.13 4.13 0 0 0 2.207 2.294 4.166 4.166 0 0 0 3.18.067l11.923-4.666c3.014-1.161 6.46-.08 8.219 2.654 7.026 10.88 16.014 20.207 26.713 27.727a6.837 6.837 0 0 1 2.326 8.327l-5.154 11.767a4.112 4.112 0 0 0-.06 3.18 4.11 4.11 0 0 0 2.207 2.301l19.473 8.52c2.113.906 4.567-.039 5.48-2.147l5.154-11.767c1.3-2.966 4.494-4.654 7.687-3.934 12.807 2.76 25.754 3.026 38.487.8.394-.066.787-.1 1.181-.1zm-18.406-55.027c-17.853 0-34.753-10.786-41.646-28.394-8.967-22.934 2.393-48.887 25.327-57.859 22.934-8.967 48.881 2.393 57.859 25.327 8.967 22.934-2.393 48.887-25.327 57.859a44.47 44.47 0 0 1-16.213 3.067zm-28.928-33.367c6.226 15.92 24.247 23.806 40.166 17.58 15.92-6.226 23.806-24.247 17.58-40.166-6.226-15.92-24.253-23.82-40.166-17.58-15.92 6.227-23.806 24.246-17.58 40.166z" fill="#602f75"></path><path d="M196.127 279.033H186.02c-2.212-10.892-6.519-21.012-12.45-29.967l7.173-7.173a8.672 8.672 0 0 0 0-12.266l-11.87-11.87a8.672 8.672 0 0 0-12.266 0l-7.173 7.173c-8.955-5.931-19.075-10.238-29.967-12.45v-10.107a8.672 8.672 0 0 0-8.673-8.673H94.007a8.672 8.672 0 0 0-8.673 8.673v10.107c-10.892 2.212-21.012 6.519-29.967 12.45l-7.173-7.173a8.672 8.672 0 0 0-12.266 0l-11.87 11.87a8.672 8.672 0 0 0 0 12.266l7.173 7.173c-5.931 8.955-10.238 19.075-12.45 29.967H8.673A8.672 8.672 0 0 0 0 287.706v16.787a8.672 8.672 0 0 0 8.673 8.673H18.78c2.212 10.892 6.519 21.012 12.45 29.967l-7.173 7.173a8.672 8.672 0 0 0 0 12.266l11.87 11.87a8.672 8.672 0 0 0 12.266 0l7.173-7.173c8.955 5.931 19.075 10.238 29.967 12.45v10.107a8.672 8.672 0 0 0 8.673 8.673h16.787a8.672 8.672 0 0 0 8.673-8.673v-10.107c10.892-2.212 21.012-6.519 29.967-12.45l7.173 7.173a8.672 8.672 0 0 0 12.266 0l11.87-11.87a8.672 8.672 0 0 0 0-12.266l-7.173-7.173c5.931-8.955 10.238-19.075 12.45-29.967h10.107a8.672 8.672 0 0 0 8.673-8.673v-16.787a8.67 8.67 0 0 0-8.672-8.673zM102.4 325.966c-16.495 0-29.867-13.372-29.867-29.867s13.372-29.867 29.867-29.867 29.867 13.372 29.867 29.867-13.372 29.867-29.867 29.867z" fill="#ea3457"></path><g fill="#00e7ff"><circle cx="81.917" cy="139.089" r="34.133"></circle><path d="M81.92 180.046c-22.586 0-40.96-18.374-40.96-40.96s18.374-40.96 40.96-40.96 40.96 18.374 40.96 40.96-18.372 40.96-40.96 40.96zm0-68.267c-15.056 0-27.307 12.247-27.307 27.307s12.25 27.307 27.307 27.307 27.307-12.247 27.307-27.307-12.249-27.307-27.307-27.307z"></path></g></symbol><symbol viewBox="0 0 512 512" id="icon-003-care"><style><![CDATA[.st0{fill:#e0b394}.st1{fill:#9b2523}.st2{fill:#e21612}.st3{fill:#f7cba4}]]></style><path class="st0" d="M386.6 309.1l28.7-59.6c5.9-12.2 20.1-17.7 32.6-12.7.1 0 .1 0 .2.1 13.2 5.4 19.5 20.4 14.1 33.6l-5.9 14.3"></path><path class="st1" d="M245.3 283c-39.4-29.3-72.4-67.8-72.4-106.9 0-43.9 30.3-79.5 67.6-79.5 29.8 0 54 28.5 54 63.6 0-35.1 24.2-63.6 54-63.6 21.8 0 41.2 12.2 53.5 31 8.8 13.4 14 30.3 14 48.5 0 54.9-65.1 108.6-121.6 137.5-16.2-8.3-33.2-18.7-49.1-30.6z"></path><path class="st2" d="M264.3 283c-24.2-29.3-44.5-67.8-44.5-106.9 0-38.3 14.2-70.3 33-77.9-4-1.1-8.1-1.7-12.3-1.7-37.3 0-67.6 35.6-67.6 79.5 0 39.1 33 77.6 72.4 106.9 15.9 11.9 32.9 22.3 49.2 30.6-10-8.2-20.4-18.6-30.2-30.5z"></path><path class="st3" d="M492.2 338.5l-170.2 71c-17.1 7.1-36.2 7.9-53.8 2.1L91.4 353.3c-9.1-3-19-2.5-27.8 1.3l-7 3.1-40-92.8L0 226.3 83 171c25.3-16.8 57-21.7 85.7-11.8 1.2.4 2.3.8 3.5 1.3l156 59.9c7.1 2.7 12.3 8.1 15.1 14.5 2.9 6.6 3.1 14.3 0 21.4-5.6 12.9-20.1 19.3-33.4 14.7l-99-33.9c-6.1-2.1-12.5-1.7-18 .7-6.8 2.9-12.2 8.8-14.3 16.5-3.3 12.6 3.6 25.7 15.9 30L308 324c10.1 3.5 21.1 3.5 31.2 0l130.1-45.5c16-5.6 33.5 2.1 40.1 17.6 0 .1.1.2.1.2 6.9 16.4-.8 35.3-17.3 42.2z"></path><path class="st0" d="M172.2 160.5s-116.2 30-152.4 99c-1 2-2.1 3.8-3.1 5.5L0 226.3 83 171c25.3-16.8 57-21.7 85.7-11.8 1.2.4 2.3.8 3.5 1.3z"></path></symbol><symbol viewBox="0 0 512 512" id="icon-003-harvest"><path d="M497 225.017h-18.602c3.896-17.058.845-30.084-3.192-38.852-7.573-16.447-23.172-29.013-46.465-37.493 9.419-12.585 22.44-14.824 37.639-11.065 8.044 1.986 16.174-2.918 18.163-10.96s-2.918-16.173-10.96-18.163c-26.924-6.657-52.286-.008-68.932 22.298-16.005-16.647-35.803-28.157-58.96-24.986-47.217-54.391-132.117-54.446-179.379 0-25.496-3.491-46.977 10.832-63.873 30.384-6.124-10.206-3.972-24.127-.207-35.42 2.62-7.859-1.628-16.354-9.487-18.974-7.863-2.618-16.354 1.628-18.974 9.487-9.636 28.908-4.122 48.388 2.766 60.05-32.61 13.926-50.826 39.136-42.934 73.693H15c-8.284 0-15 6.716-15 15v128c0 8.284 6.716 15 15 15h18v49c0 8.284 6.716 15 15 15h416c8.284 0 15-6.716 15-15v-49h18c8.284 0 15-6.716 15-15v-128c0-8.283-6.716-14.999-15-14.999zm-101.735-58.421a15.004 15.004 0 0 0 8.707 5.925c23.523 5.728 38.733 14.784 43.985 26.191 3.294 7.154 3.015 15.98-.79 26.305H306.014c-6.253-20.936-2.867-43.467 9.643-61.846 8.578-12.592 22.087-27.771 37.394-27.897 16.821-.123 32.487 17.54 42.214 31.322zm-78.977-48.09c-8.906 6.723-17.398 15.993-25.428 27.781-15.968 23.459-21.395 51.701-15.762 78.73h-38.195c5.632-27.03.205-55.272-15.765-78.734-8.028-11.786-16.52-21.054-25.426-27.777 33.751-31.283 86.703-31.392 120.576 0zM64.044 198.712c5.251-11.407 20.461-20.463 43.985-26.191a15.004 15.004 0 0 0 8.707-5.925c9.731-13.788 25.397-31.449 42.209-31.323 15.289.127 28.799 15.274 37.396 27.895 12.512 18.382 15.899 40.914 9.646 61.85H64.834c-3.805-10.326-4.084-19.152-.79-26.306zM449 417.017H63v-34h386zm33-64H30v-98h452z"></path><path d="M94.71 301.087c-1.839-8.818-10.605-13.943-19.07-11.42-8.688 2.831-12.198 11.444-9.99 18.7 2.684 8.41 11.094 12.262 18.71 10 7.917-2.588 11.711-10.008 10.35-17.28zM417.08 305.497c.658 7.989 8.122 14.316 16.39 13.45 8.473-.861 14.28-8.423 13.46-16.41-.9-8.671-8.892-14.918-17.86-13.23-7.856 1.63-12.749 8.79-11.99 16.19z"></path></symbol><symbol viewBox="0 0 299.063 299.063" id="icon-004-calendar"><path d="M258.343 26.972H40.72c-19.202 0-34.769 15.567-34.769 34.769v202.553c0 19.202 15.567 34.769 34.769 34.769h217.623c19.202 0 34.769-15.567 34.769-34.769V61.741c0-19.203-15.567-34.769-34.769-34.769z" fill="#ebf0f3"></path><path d="M293.112 92.299V50.171c0-19.202-15.567-34.769-34.769-34.769H40.72c-19.202 0-34.769 15.567-34.769 34.769v42.128z" fill="#ce412d"></path><path d="M293.112 100.159V61.741c0-19.202-15.567-34.769-34.769-34.769H40.72c-19.202 0-34.769 15.567-34.769 34.769v38.418z" fill="#e56353"></path><path d="M62.902 45.645c-6.702 0-12.135 5.433-12.135 12.135S56.2 69.914 62.902 69.914s12.134-5.433 12.134-12.134c.001-6.702-5.432-12.135-12.134-12.135z" fill="#d15241"></path><path d="M62.902 0a6.493 6.493 0 0 0-6.492 6.492v50.581a6.492 6.492 0 1 0 12.984 0V6.492A6.492 6.492 0 0 0 62.902 0z" fill="#4d5c7d"></path><path d="M120.655 45.645c-6.702 0-12.135 5.433-12.135 12.135s5.433 12.134 12.135 12.134 12.134-5.433 12.134-12.134c.001-6.702-5.432-12.135-12.134-12.135z" fill="#d15241"></path><path d="M120.655 0a6.493 6.493 0 0 0-6.492 6.492v50.581a6.492 6.492 0 1 0 12.984 0V6.492A6.493 6.493 0 0 0 120.655 0z" fill="#4d5c7d"></path><path d="M178.408 45.645c-6.702 0-12.135 5.433-12.135 12.135s5.433 12.134 12.135 12.134 12.134-5.433 12.134-12.134c0-6.702-5.432-12.135-12.134-12.135z" fill="#d15241"></path><path d="M178.408 0a6.493 6.493 0 0 0-6.492 6.492v50.581a6.492 6.492 0 1 0 12.984 0V6.492A6.493 6.493 0 0 0 178.408 0z" fill="#4d5c7d"></path><path d="M236.161 45.645c-6.702 0-12.135 5.433-12.135 12.135s5.433 12.134 12.135 12.134 12.134-5.433 12.134-12.134c0-6.702-5.433-12.135-12.134-12.135z" fill="#d15241"></path><path d="M236.16 0a6.493 6.493 0 0 0-6.492 6.492v50.581a6.492 6.492 0 1 0 12.984 0V6.492A6.492 6.492 0 0 0 236.16 0z" fill="#4d5c7d"></path><g fill="#e56353"><path d="M111.907 148.197h26.245v26.245h-26.245zM160.911 148.197h26.245v26.245h-26.245zM209.916 148.197h26.245v26.245h-26.245zM62.902 189.34h26.245v26.245H62.902zM111.907 189.34h26.245v26.245h-26.245zM160.911 189.34h26.245v26.245h-26.245zM209.916 189.34h26.245v26.245h-26.245zM62.902 230.483h26.245v26.245H62.902zM111.907 230.483h26.245v26.245h-26.245zM160.911 230.483h26.245v26.245h-26.245z"></path></g></symbol><symbol viewBox="0 0 512 512" id="icon-agriculture"><path d="M201.949 278.072c5.522 0 9.997-4.476 9.997-9.997V198.03c0-16.538-13.455-29.992-29.992-29.992H29.992C13.455 168.037 0 181.492 0 198.029v256.935c0 16.538 13.455 29.992 29.992 29.992h151.961c16.538 0 29.992-13.455 29.992-29.992V344.992c0-5.522-4.476-9.997-9.997-9.997s-9.997 4.476-9.997 9.997v71.899H19.995v-186.9h171.956v38.083c0 5.522 4.476 9.998 9.998 9.998zm-9.998 158.814v18.078c0 5.513-4.485 9.997-9.997 9.997H29.992c-5.513 0-9.997-4.485-9.997-9.997v-18.078h171.956zM19.995 209.996v-11.967c0-5.513 4.485-9.997 9.997-9.997h151.961c5.513 0 9.997 4.485 9.997 9.997v11.967H19.995z"></path><path d="M209.017 297.934c-1.859-1.859-4.439-2.929-7.068-2.929s-5.209 1.07-7.068 2.929c-1.859 1.859-2.929 4.439-2.929 7.068s1.07 5.209 2.929 7.068c1.86 1.859 4.439 2.929 7.068 2.929s5.209-1.07 7.068-2.929c1.86-1.859 2.929-4.439 2.929-7.068s-1.07-5.208-2.929-7.068zM114.591 443.897c-1.859-1.859-4.439-2.929-7.068-2.929s-5.209 1.07-7.068 2.929c-1.859 1.859-2.929 4.439-2.929 7.068s1.07 5.209 2.929 7.068c1.86 1.86 4.439 2.929 7.068 2.929s5.209-1.07 7.068-2.929c1.86-1.859 2.929-4.439 2.929-7.068s-1.07-5.208-2.929-7.068zM142.664 84.162c-20.231-20.23-53.149-20.23-73.38 0-3.904 3.904-3.905 10.234 0 14.138 3.905 3.905 10.235 3.905 14.138 0 12.435-12.435 32.67-12.435 45.105 0a9.958 9.958 0 0 0 7.068 2.928 9.97 9.97 0 0 0 7.069-2.928c3.904-3.903 3.904-10.234 0-14.138z"></path><path d="M172.284 54.54c-17.711-17.711-41.262-27.467-66.311-27.467s-48.6 9.755-66.312 27.467c-3.904 3.904-3.904 10.234 0 14.139 3.904 3.904 10.234 3.904 14.138 0 28.768-28.769 75.579-28.769 104.347 0a9.962 9.962 0 0 0 7.069 2.928 9.965 9.965 0 0 0 7.069-2.928c3.904-3.904 3.904-10.234 0-14.139zM113.041 113.981c-1.86-1.86-4.439-2.929-7.068-2.929s-5.209 1.07-7.068 2.929c-1.86 1.859-2.929 4.439-2.929 7.068s1.07 5.209 2.929 7.068c1.859 1.859 4.439 2.929 7.068 2.929s5.209-1.07 7.068-2.929c1.859-1.86 2.929-4.439 2.929-7.068s-1.069-5.209-2.929-7.068zM501.873 464.962H394.078V288.057c4.288.553 9.732 1.018 15.969 1.018 20.615 0 49.761-5.068 73.436-28.743 40.554-40.555 26.16-96.771 25.527-99.145a9.997 9.997 0 0 0-7.085-7.085c-2.374-.632-58.59-15.026-99.145 25.528a96.107 96.107 0 0 0-8.704 9.989v-71.451c.409-17.995-3.401-44.764-24.963-66.325-35.26-35.26-84.11-22.753-86.172-22.202a9.997 9.997 0 0 0-7.085 7.085c-.55 2.063-13.057 50.912 22.203 86.172 20.588 20.588 45.922 24.993 63.835 24.993 4.632 0 8.758-.296 12.187-.682v144.857a103.076 103.076 0 0 0-10.948-12.895c-43.737-43.737-104.381-28.21-106.942-27.527a9.997 9.997 0 0 0-7.085 7.085c-.683 2.56-16.21 63.206 27.526 106.942 25.533 25.532 56.969 30.997 79.208 30.997 7.226 0 13.476-.578 18.241-1.231v69.524h-75.158c-5.522 0-9.997 4.476-9.997 9.997s4.476 9.997 9.997 9.997h202.948c5.522 0 9.997-4.476 9.997-9.997s-4.474-9.996-9.995-9.996zm-150.09-373.54c-3.904-3.904-10.234-3.904-14.139 0s-3.904 10.234 0 14.139l22.294 22.294c-13.907-.324-32.711-4.073-47.737-19.1-20.982-20.98-19.877-48.803-18.152-60.896 12.077-1.678 40.061-2.749 60.927 18.119 14.905 14.905 18.665 33.719 19.026 47.662l-22.219-22.218zm22.177 270.935l-32.863-32.862c-3.904-3.904-10.234-3.904-14.138 0s-3.904 10.234 0 14.138l32.861 32.86c-18.535.563-47-2.912-69.047-24.961-28.335-28.335-25.735-67.044-23.481-81.703 14.681-2.255 53.378-4.847 81.705 23.48 22.05 22.051 25.525 50.519 24.963 69.048zm20.116-110.39c.202-16.703 4.456-39.811 22.844-58.199 25.466-25.467 60.182-23.484 73.916-21.459 2.075 13.724 4.116 48.275-21.493 73.883-19.354 19.354-44.156 22.987-61.052 22.765l28.898-28.898c3.904-3.904 3.905-10.234 0-14.138-3.904-3.904-10.234-3.904-14.138 0l-28.966 28.965c-.003-.182-.008-.359-.01-.543v-2.376zM263.133 467.891a10.074 10.074 0 0 0-7.068-2.929c-2.639 0-5.209 1.07-7.068 2.929a10.027 10.027 0 0 0-2.929 7.068c0 2.629 1.06 5.209 2.929 7.068 1.86 1.859 4.439 2.929 7.068 2.929s5.199-1.07 7.068-2.929a10.07 10.07 0 0 0 2.929-7.068 10.07 10.07 0 0 0-2.929-7.068z"></path></symbol><symbol viewBox="0 0 512 512" id="icon-apple"><path d="M461.168 198.493c-20.457-37.356-48.469-60.68-83.256-69.323-40.679-10.108-80.89 2.566-105.638 13.693 1.372-25.119-.592-47.338-5.852-66.557 10.29 13.45 31.822 35.689 64.193 40.19 3.895.541 7.805.812 11.74.812 30.364 0 61.856-16.12 93.784-48.048l10.607-10.606-10.607-10.606C400.075 11.982 364.573-3.909 330.615.811c-46.067 6.404-70.183 48.732-71.187 50.53l-1.347 2.414c-4.766-9.915-10.683-18.764-17.771-26.5C219.596 4.642 196.813.574 194.284.186l-4.563 29.651-.175-.028c2.508.449 59.157 11.854 52.598 114.155-24.491-11.361-66.029-25.237-108.056-14.793-34.788 8.643-62.799 31.967-83.256 69.323-20.182 36.853-25.61 82.219-15.697 131.193 8.595 42.466 28.138 84.731 55.029 119.01 31.945 40.723 69.124 63.305 102.725 63.302 5.97-.001 11.836-.715 17.531-2.167 4.428-.767 25.629-4.8 45.581-14.789 19.953 9.988 41.152 14.022 45.581 14.789 5.696 1.452 11.558 2.167 17.531 2.167 33.598 0 70.782-22.583 102.725-63.302 26.891-34.279 46.434-76.545 55.029-119.01 9.911-48.975 4.483-94.34-15.699-131.194zM334.746 30.525c20.976-2.909 44.091 6.538 68.853 28.127-24.673 21.512-47.718 30.974-68.63 28.158-21.579-2.908-36.832-18.622-44.254-28.149 7.4-9.48 22.619-25.159 44.031-28.136zm63.485 399.654c-29.765 37.942-64.119 57.279-89.646 50.476l-.754-.201-.772-.122c-6.771-1.069-27.759-5.892-43.341-15.241l-7.717-4.631-7.717 4.631c-18.625 11.174-43.117 15.205-43.342 15.241l-.771.122-.754.201c-25.536 6.803-59.882-12.533-89.647-50.476-45.538-58.05-72.741-151.323-36.623-217.276 16.235-29.646 37.775-48.01 64.024-54.58 51.444-12.872 106.051 22.302 106.575 22.644l8.254 5.44 8.254-5.44c.541-.357 54.723-35.522 106.422-22.682 26.319 6.539 47.912 24.916 64.177 54.618 36.118 65.953 8.916 159.226-36.622 217.276z"></path></symbol><symbol viewBox="0 0 512 512" id="icon-apples"><path d="M10 487.866h492c5.522 0 10-4.477 10-10H0c0 5.523 4.477 10 10 10zM502 219.934h-4.523c4.492-16.149 6.92-34.664 6.92-53.543 0-30.438-13.79-45.987-25.358-53.67-4.986-3.312-10.389-5.701-15.829-7.304 14.048-21.445 8.23-52.807 7.945-54.282a10 10 0 0 0-7.968-7.928c-1.635-.309-40.275-7.298-61.216 13.643-13.082 13.082-15.262 33.075-14.981 46.634a48.155 48.155 0 0 0-2.821-.293c-14.494-14.901-35.523-19.329-50.054-17.395.283-13.56-1.893-33.567-14.982-46.657-20.94-20.94-59.581-13.95-61.216-13.642a10.001 10.001 0 0 0-7.97 7.941c-.264 1.371-5.278 28.6 5.327 49.675a9.97 9.97 0 0 0-5.364-2.923c-1.636-.309-40.277-7.295-61.216 13.642-7.621 7.621-11.532 17.585-13.423 27.258-4.667-4.845-9.702-8.281-14.213-10.682-12.235-6.513-25.827-8.247-36.048-6.895.285-13.561-1.889-33.573-14.981-46.666-20.941-20.939-59.581-13.949-61.216-13.642a10 10 0 0 0-7.97 7.941c-.284 1.473-6.053 32.797 7.965 54.264-5.446 1.603-10.856 3.995-15.848 7.31-11.568 7.683-25.358 23.232-25.358 53.67 0 18.88 2.428 37.395 6.92 53.543H10c-5.523 0-10 4.477-10 10v247.932l512 .001V229.934c0-5.523-4.478-10-10-10zM416.113 70.989c8.799-8.8 25.541-9.724 36.283-8.975.802 10.77-.063 27.511-8.927 36.15-3.02 2.944-6.999 5.06-11.492 6.511l-.201.061c-7.486 2.376-16.374 2.927-24.648 2.382-.729-10.756.229-27.373 8.985-36.129zm-37.387 52.121c.209-.011.399-.019.564-.024 3.762-.116 6.855.327 8.64 1.078 6.718 2.826 17.146 6.127 24.426 6.127 7.279 0 17.707-3.3 24.425-6.126.078-.033.166-.064.249-.096.512-.155 1.026-.306 1.536-.475 6.007-1.492 18.822-1.245 29.408 5.787 10.898 7.237 16.423 19.689 16.423 37.009 0 19.302-2.742 38.029-7.784 53.543H348.099a1.302 1.302 0 0 1-.012-.034c-.053-.163-.102-.331-.154-.495a136.33 136.33 0 0 1-.83-2.683c-.111-.375-.217-.758-.325-1.137-.203-.706-.404-1.415-.598-2.132-.116-.432-.228-.869-.342-1.304-.176-.678-.35-1.36-.519-2.047a146.272 146.272 0 0 1-.801-3.45 142.372 142.372 0 0 1-.743-3.568c-.088-.446-.177-.889-.262-1.338-.153-.811-.297-1.629-.439-2.449-.065-.374-.134-.744-.196-1.119a175.36 175.36 0 0 1-.566-3.619l-.037-.268a181.111 181.111 0 0 1-.457-3.402c-.052-.413-.097-.831-.146-1.246-.097-.824-.193-1.649-.28-2.479-.051-.483-.096-.969-.143-1.454a193.4 193.4 0 0 1-.337-3.855 191.863 191.863 0 0 1-.38-6.22c-.023-.495-.047-.99-.066-1.487-.033-.866-.057-1.736-.079-2.606-.011-.422-.026-.843-.034-1.266a200.794 200.794 0 0 1-.039-3.885c0-.921.024-1.822.058-2.716.009-.219.016-.438.027-.654.039-.811.092-1.61.16-2.398.026-.3.057-.593.087-.888a55.55 55.55 0 0 1 .457-3.452c.039-.24.078-.48.12-.718 5.044-28.155 29.653-31.921 36.889-32.417.204-.012.412-.028.614-.037zM268.714 44.351c9.702-.681 26.975-.372 36.276 8.928 8.747 8.747 9.712 25.341 8.988 36.09-13.421.833-28.403-1.121-36.321-8.89-8.832-8.669-9.723-25.37-8.943-36.128zm-10.776 43.388l-.154.043c-.038-.165-.085-.326-.131-.488.094.148.188.297.285.445zm1.278 20.689c10.354-4.347 21.218-3.611 25.108-1.975 6.718 2.826 17.146 6.127 24.425 6.127 7.28 0 17.708-3.3 24.426-6.127 3.864-1.623 13.201-1.788 22.532 1.673a59.831 59.831 0 0 0-9.641 5.182 57.167 57.167 0 0 0-3.079 2.199l-.077.058a57.24 57.24 0 0 0-1.555 1.238l-.053.042c-.085.07-.171.145-.256.217-9.014 7.545-18.008 19.92-20.213 39.813l-.023.217a82.59 82.59 0 0 0-.188 1.943c-.02.234-.036.472-.054.708-.04.532-.08 1.064-.11 1.607-.024.419-.039.847-.057 1.272-.016.394-.037.784-.048 1.184a91.312 91.312 0 0 0-.038 2.584c0 2.1.041 4.192.1 6.28a218.614 218.614 0 0 0 .34 7.625c.014.22.033.438.048.658.124 1.876.276 3.74.448 5.596.043.465.085.931.13 1.395.198 1.996.418 3.98.67 5.946.043.338.093.672.138 1.009.231 1.737.484 3.46.757 5.169.066.415.129.832.198 1.246.318 1.914.661 3.807 1.03 5.68.078.396.162.786.242 1.18.336 1.646.69 3.275 1.066 4.885.078.336.152.675.232 1.009a168.2 168.2 0 0 0 1.379 5.358c.046.167.084.341.13.507h-36.717c.046-.615.08-1.233.121-1.849.026-.39.053-.78.077-1.171.123-2.02.22-4.047.288-6.08.012-.36.02-.721.03-1.081.06-2.122.1-4.248.1-6.378 0-.883-.014-1.751-.037-2.608-.01-.389-.029-.769-.044-1.153-.018-.441-.033-.882-.057-1.316a84.223 84.223 0 0 0-.1-1.551c-.018-.251-.035-.504-.055-.752a84.289 84.289 0 0 0-.172-1.894l-.02-.197c-1.845-17.768-8.796-29.541-16.433-37.256l-.237-.237c-.206-.206-.412-.412-.619-.612-.316-.306-.63-.604-.943-.892l-.037-.033c-.26-.239-.52-.474-.777-.701-.034-.03-.071-.057-.105-.087a53.992 53.992 0 0 0-2.36-1.956l-.132-.103a54.265 54.265 0 0 0-2.723-1.976c-.169-.116-.34-.235-.509-.347a52.783 52.783 0 0 0-1.773-1.125c-.206-.126-.413-.244-.619-.367a55.145 55.145 0 0 0-1.857-1.053c-.246-.133-.491-.268-.737-.398a57.473 57.473 0 0 0-1.974-.981 59.278 59.278 0 0 0-2.979-1.321c-.298-.122-.596-.236-.895-.352a63.033 63.033 0 0 0-1.724-.644c-.221-.078-.442-.163-.663-.238a61.366 61.366 0 0 0-2.37-.755c-.091-.027-.182-.061-.273-.087 6.775-10.417 8.97-23.093 9.318-33.954zm-56.379-.455c8.776-8.776 25.454-9.719 36.195-8.98.162 2.309.262 5.051.204 8.004-.006.272-.011.54-.02.819-.006.213-.018.431-.026.645-.276 6.602-1.454 14.784-5.053 21.323a27.155 27.155 0 0 1-1.145 1.89c-.142.213-.301.414-.449.622-.288.408-.573.817-.886 1.205a22.452 22.452 0 0 1-1.555 1.738v.001a21.62 21.62 0 0 1-1.656 1.485c-.313.253-.655.489-.988.731-.275.201-.542.411-.826.601-.439.293-.908.567-1.377.84-.204.119-.401.247-.609.362-.531.292-1.09.564-1.656.832-.828.392-1.675.756-2.547 1.085a33.038 33.038 0 0 0-4.065 1.289c-7.656 2.026-16.103 2.195-22.472 1.755-.68-9.713-.36-26.956 8.931-36.247zm-28.185 53.176l.004.002.045.018c6.719 2.822 17.114 6.106 24.377 6.106 7.086 0 17.145-3.126 23.873-5.899a62.616 62.616 0 0 0 3.007-.95 24.063 24.063 0 0 1 1.757-.298c.083-.008.166-.007.249-.018 4.055-.507 9.283-.323 14.676 1.022l.063.016c.658.165 1.318.347 1.978.548l.062.019a40.5 40.5 0 0 1 3.924 1.423l.15.062a37.39 37.39 0 0 1 1.792.826l.315.156c.574.288 1.144.592 1.709.914.104.059.206.121.31.182.559.326 1.113.665 1.659 1.025l.095.061c.659.438 1.296.896 1.915 1.371.292.224.573.471.86.706.32.263.647.52.956.794.23.204.446.421.67.63.32.3.641.599.948.911.262.266.512.544.765.819.249.271.498.542.738.821.264.308.52.624.773.943a31.752 31.752 0 0 1 1.888 2.621c.249.382.495.767.73 1.161.144.241.28.49.419.735.241.428.483.855.709 1.296.101.197.193.402.291.601a40.577 40.577 0 0 1 2.105 5.195c.073.224.154.441.224.668.15.481.284.976.42 1.47.09.328.184.654.268.988.117.463.223.936.328 1.41.086.387.171.774.249 1.168a59.04 59.04 0 0 1 .464 2.706c.065.439.127.881.183 1.328.063.504.116 1.017.167 1.531.041.413.085.824.118 1.243.049.607.083 1.227.116 1.848.019.348.044.69.058 1.042.038.985.061 1.984.061 3.002 0 1.903-.036 3.801-.09 5.696a203.756 203.756 0 0 1-.306 6.954c-.011.17-.026.338-.036.507-.074 1.139-.176 2.269-.27 3.401H127.739c-.094-1.132-.196-2.262-.27-3.401-.011-.169-.026-.338-.037-.507a199.887 199.887 0 0 1-.306-6.954c-.053-1.895-.09-3.794-.09-5.696 0-16.756 5.658-29.01 16.818-36.422 11.515-7.645 25.953-7.841 30.798-5.801zM59.609 62.061c9.708-.682 26.976-.372 36.277 8.928 8.747 8.748 9.712 25.342 8.988 36.091-13.418.836-28.399-1.121-36.321-8.892-8.833-8.667-9.724-25.369-8.944-36.127zm-15.582 67.318c11.799-7.835 26.366-7.246 31.193-5.216 6.718 2.826 17.145 6.127 24.425 6.127 7.28 0 17.708-3.3 24.425-6.126 3.949-1.661 16.095-2.223 27.592 3.898 5.561 2.96 9.985 6.973 13.248 12.001l-.114.006c-.598.022-1.201.052-1.809.094l-.051.004c-.585.04-1.175.091-1.769.149-.178.017-.356.039-.535.058a62.66 62.66 0 0 0-3.853.532c-.465.079-.932.165-1.4.255-.165.032-.329.061-.495.094a64.365 64.365 0 0 0-3.834.894c-.178.047-.356.099-.534.148-.461.126-.921.257-1.383.395-.215.064-.43.131-.645.198-.434.135-.868.275-1.302.42-.215.072-.43.143-.645.218-.463.16-.925.328-1.387.5-.177.066-.354.129-.53.196a62.444 62.444 0 0 0-3.797 1.598c-.188.087-.376.179-.564.268a52.157 52.157 0 0 0-1.974.978c-.405.21-.809.425-1.212.646-.222.122-.444.243-.666.368a58.49 58.49 0 0 0-1.255.731c-.192.114-.384.226-.575.342-.602.369-1.199.746-1.792 1.14-11.748 7.803-25.753 23.346-25.753 53.082 0 2.129.04 4.254.1 6.376.01.362.018.723.03 1.084.068 2.032.165 4.058.288 6.077.024.392.051.783.077 1.175.041.616.075 1.233.121 1.847H35.387c-5.042-15.516-7.784-34.244-7.784-53.546 0-17.32 5.525-29.772 16.424-37.011zM492 467.866H20v-62.644h472v62.644zm0-82.644H20v-62.644h472v62.644zm0-82.644H20v-62.644h472v62.644z"></path><path d="M89.169 271.256l5.552-5.552c3.907-3.906 3.907-10.237.002-14.142-3.906-3.905-10.236-3.905-14.143.001l-5.551 5.551-5.551-5.551c-3.904-3.905-10.234-3.905-14.143-.001-3.905 3.905-3.905 10.237 0 14.142l5.552 5.552-5.552 5.552c-3.905 3.905-3.905 10.237 0 14.142 1.953 1.953 4.512 2.929 7.071 2.929s5.118-.977 7.071-2.929l5.551-5.551 5.551 5.551a9.968 9.968 0 0 0 7.071 2.929 9.972 9.972 0 0 0 7.071-2.929c3.905-3.905 3.905-10.237 0-14.142l-5.552-5.552zM451.111 271.256l5.552-5.552c3.907-3.906 3.907-10.237.002-14.142-3.906-3.905-10.236-3.905-14.143.001l-5.551 5.551-5.551-5.551c-3.905-3.905-10.235-3.905-14.143-.001-3.905 3.905-3.905 10.237 0 14.142l5.552 5.552-5.552 5.552c-3.905 3.905-3.905 10.237 0 14.142a9.968 9.968 0 0 0 7.071 2.929 9.97 9.97 0 0 0 7.071-2.929l5.551-5.551 5.551 5.551c1.953 1.953 4.512 2.929 7.071 2.929s5.118-.977 7.071-2.929c3.905-3.905 3.905-10.237 0-14.142l-5.552-5.552zM89.169 352.901l5.552-5.552c3.907-3.905 3.907-10.237.002-14.142-3.906-3.905-10.236-3.905-14.143 0l-5.551 5.551-5.551-5.551c-3.904-3.905-10.234-3.905-14.143 0-3.905 3.905-3.905 10.237 0 14.142l5.552 5.552-5.552 5.552c-3.905 3.905-3.905 10.237 0 14.142 1.953 1.953 4.512 2.929 7.071 2.929s5.118-.977 7.071-2.929l5.551-5.551 5.551 5.551a9.968 9.968 0 0 0 7.071 2.929 9.972 9.972 0 0 0 7.071-2.929c3.905-3.905 3.905-10.237 0-14.142l-5.552-5.552zM451.111 352.901l5.552-5.552c3.907-3.905 3.907-10.237.002-14.142-3.906-3.905-10.236-3.905-14.143 0l-5.551 5.551-5.551-5.551c-3.905-3.905-10.235-3.905-14.143 0-3.905 3.905-3.905 10.237 0 14.142l5.552 5.552-5.552 5.552c-3.905 3.905-3.905 10.237 0 14.142a9.968 9.968 0 0 0 7.071 2.929 9.97 9.97 0 0 0 7.071-2.929l5.551-5.551 5.551 5.551c1.953 1.953 4.512 2.929 7.071 2.929s5.118-.977 7.071-2.929c3.905-3.905 3.905-10.237 0-14.142l-5.552-5.552zM89.169 436.544l5.552-5.552c3.905-3.905 3.905-10.237 0-14.142-3.906-3.905-10.236-3.905-14.143.001l-5.551 5.551-5.551-5.551c-3.904-3.905-10.234-3.905-14.143-.001-3.905 3.905-3.905 10.237 0 14.142l5.552 5.552-5.552 5.552c-3.903 3.905-3.903 10.237.002 14.142 1.953 1.953 4.512 2.929 7.071 2.929s5.118-.977 7.071-2.929l5.551-5.551 5.551 5.551a9.968 9.968 0 0 0 7.071 2.929 9.972 9.972 0 0 0 7.071-2.929c3.905-3.905 3.905-10.237 0-14.142l-5.552-5.552zM451.111 436.544l5.552-5.552c3.905-3.905 3.905-10.237 0-14.142-3.906-3.905-10.236-3.905-14.143.001l-5.551 5.551-5.551-5.551c-3.905-3.905-10.235-3.905-14.143-.001-3.905 3.905-3.905 10.237 0 14.142l5.552 5.552-5.552 5.552c-3.903 3.905-3.903 10.237.002 14.142a9.968 9.968 0 0 0 7.071 2.929 9.97 9.97 0 0 0 7.071-2.929l5.551-5.551 5.551 5.551c1.953 1.953 4.512 2.929 7.071 2.929s5.118-.977 7.071-2.929c3.905-3.905 3.905-10.237 0-14.142l-5.552-5.552zM383.36 268.62a10.175 10.175 0 0 0-1.49-3.6 9.57 9.57 0 0 0-1.24-1.52c-.46-.46-.97-.88-1.521-1.24a10.098 10.098 0 0 0-3.599-1.49 9.898 9.898 0 0 0-3.91 0c-.63.13-1.26.32-1.87.57-.6.25-1.18.56-1.72.92-.55.36-1.06.78-1.52 1.24a9.874 9.874 0 0 0-2.171 3.25 9.84 9.84 0 0 0-.759 3.82 9.94 9.94 0 0 0 .759 3.83c.25.6.561 1.18.921 1.72a10.153 10.153 0 0 0 2.77 2.77c.54.36 1.12.67 1.72.92.61.25 1.24.44 1.87.57.65.13 1.311.19 1.96.19a9.84 9.84 0 0 0 3.82-.76 9.86 9.86 0 0 0 3.25-2.17c1.86-1.86 2.93-4.43 2.93-7.07 0-.65-.069-1.31-.2-1.95zM337.195 260.573H138.441c-5.523 0-10 4.477-10 10s4.477 10 10 10h198.754c5.522 0 10-4.477 10-10s-4.477-10-10-10zM148.25 434.59a10.098 10.098 0 0 0-1.49-3.6c-.37-.55-.79-1.06-1.25-1.52a9.57 9.57 0 0 0-1.52-1.24c-.54-.36-1.12-.67-1.721-.92-.609-.25-1.239-.44-1.87-.57a9.893 9.893 0 0 0-3.909 0c-.641.13-1.271.32-1.87.57-.61.25-1.19.56-1.73.92-.55.36-1.06.78-1.52 1.24-.46.46-.88.97-1.24 1.52-.36.54-.67 1.13-.92 1.73-.25.6-.441 1.23-.57 1.87-.13.64-.2 1.3-.2 1.95 0 .66.07 1.31.2 1.96a10.075 10.075 0 0 0 1.49 3.59c.36.55.78 1.06 1.24 1.52a9.87 9.87 0 0 0 3.25 2.17 9.837 9.837 0 0 0 3.819.76c.65 0 1.311-.06 1.96-.19.631-.13 1.261-.32 1.87-.57.601-.25 1.181-.56 1.721-.92a9.63 9.63 0 0 0 1.52-1.25c.46-.46.88-.97 1.25-1.52.36-.54.67-1.12.92-1.72.25-.61.44-1.23.57-1.87.13-.65.189-1.3.189-1.96 0-.65-.06-1.31-.189-1.95zM373.559 426.544H174.805c-5.523 0-10 4.477-10 10s4.477 10 10 10h198.754c5.522 0 10-4.477 10-10s-4.478-10-10-10z"></path></symbol><symbol viewBox="0 0 383.9 383.9" id="icon-calendar"><path d="M344.1 50H320V30.9c0-5.5-4.5-10-10-10s-10 4.5-10 10V50h-98V30.9c0-5.5-4.5-10-10-10s-10 4.5-10 10V50H83V30.9c0-5.5-4.5-10-10-10s-10 4.5-10 10V50H39.9C17.9 50 0 68.5 0 90.5V323c0 22.1 17.8 40 39.9 40H344c22.1 0 39.9-17.9 39.9-39.9V90.5c.1-22-17.8-40.5-39.8-40.5zM364 323c0 11-8.8 19.9-19.8 20H39.9c-11 0-19.9-8.9-19.9-19.9V90.5C20 79.4 28.9 70 39.9 70H63v14.5c0 5.5 4.5 10 10 10s10-4.5 10-10V70h99v14.5c0 5.5 4.5 10 10 10s10-4.5 10-10V70h98v14.5c0 5.5 4.5 10 10 10s10-4.5 10-10V70h24.1c11.1 0 19.9 9.5 19.9 20.5V323z"></path><path d="M165.7 135h-17.5c-5.5 0-10 4.5-10 10s4.5 10 10 10h17.5c5.5 0 10-4.5 10-10s-4.5-10-10-10zM235.3 135h-17.5c-5.5 0-10 4.5-10 10s4.5 10 10 10h17.5c5.5 0 10-4.5 10-10s-4.4-10-10-10zM305.5 135H288c-5.5 0-10 4.5-10 10s4.5 10 10 10h17.5c5.5 0 10-4.5 10-10s-4.5-10-10-10zM165.7 204h-17.5c-5.5 0-10 4.5-10 10s4.5 10 10 10h17.5c5.5 0 10-4.5 10-10s-4.5-10-10-10zM95.6 204H78c-5.5 0-10 4.5-10 10s4.5 10 10 10h17.5c5.5 0 10-4.5 10-10s-4.4-10-9.9-10zM235.3 204h-17.5c-5.5 0-10 4.5-10 10s4.5 10 10 10h17.5c5.5 0 10-4.5 10-10s-4.4-10-10-10zM305.5 204H288c-5.5 0-10 4.5-10 10s4.5 10 10 10h17.5c5.5 0 10-4.5 10-10s-4.5-10-10-10zM165.7 272h-17.5c-5.5 0-10 4.5-10 10s4.5 10 10 10h17.5c5.5 0 10-4.5 10-10s-4.5-10-10-10zM95.6 272H78c-5.5 0-10 4.5-10 10s4.5 10 10 10h17.5c5.5 0 10-4.5 10-10s-4.4-10-9.9-10zM235.3 272h-17.5c-5.5 0-10 4.5-10 10s4.5 10 10 10h17.5c5.5 0 10-4.5 10-10s-4.4-10-10-10z"></path></symbol><symbol viewBox="0 0 241.2 241.2" id="icon-cross"><path d="M135.5 120.7l84.3-83.8c4-4 4-10.5 0-14.5s-10.6-4-14.6 0L121 106.2l-85-85c-4-4-10.6-4-14.6 0s-4 10.6 0 14.6l84.9 84.9-85.2 84.7c-4 4-4 10.5 0 14.5s10.6 4 14.6 0l85.1-84.7 84.6 84.6c4 4 10.6 4 14.6 0s4-10.6 0-14.6l-84.5-84.5z"></path></symbol><symbol viewBox="0 0 512 512" id="icon-doc"><path d="M446.605 124.392L326.608 4.395A15.02 15.02 0 0 0 316 0H106C81.187 0 61 20.187 61 45v422c0 24.813 20.187 45 45 45h300c24.813 0 45-20.187 45-45V135c0-4.09-1.717-7.931-4.395-10.608zM331 51.213L399.787 120H346c-8.271 0-15-6.729-15-15zM406 482H106c-8.271 0-15-6.729-15-15V45c0-8.271 6.729-15 15-15h195v75c0 24.813 20.187 45 45 45h75v317c0 8.271-6.729 15-15 15z"></path><path d="M346 212H166c-8.284 0-15 6.716-15 15s6.716 15 15 15h180c8.284 0 15-6.716 15-15s-6.716-15-15-15zM346 272H166c-8.284 0-15 6.716-15 15s6.716 15 15 15h180c8.284 0 15-6.716 15-15s-6.716-15-15-15zM346 332H166c-8.284 0-15 6.716-15 15s6.716 15 15 15h180c8.284 0 15-6.716 15-15s-6.716-15-15-15zM286 392H166c-8.284 0-15 6.716-15 15s6.716 15 15 15h120c8.284 0 15-6.716 15-15s-6.716-15-15-15z"></path></symbol><symbol viewBox="0 0 666.7 533.3" id="icon-email"><path d="M666.7 33.3v133.3L333.3 300 0 166.7V33.3C0 14.9 14.9 0 33.3 0h600c18.4 0 33.4 14.9 33.4 33.3zM0 238.5V500c0 18.4 14.9 33.3 33.3 33.3h600c18.4 0 33.3-14.9 33.3-33.3V238.5L333.3 371.8 0 238.5z"></path></symbol><symbol viewBox="0 0 511.999 511.999" id="icon-eye"><path d="M508.745 246.041c-4.574-6.257-113.557-153.206-252.748-153.206S7.818 239.784 3.249 246.035a16.896 16.896 0 0 0 0 19.923c4.569 6.257 113.557 153.206 252.748 153.206s248.174-146.95 252.748-153.201a16.875 16.875 0 0 0 0-19.922zM255.997 385.406c-102.529 0-191.33-97.533-217.617-129.418 26.253-31.913 114.868-129.395 217.617-129.395 102.524 0 191.319 97.516 217.617 129.418-26.253 31.912-114.868 129.395-217.617 129.395z"></path><path d="M255.997 154.725c-55.842 0-101.275 45.433-101.275 101.275s45.433 101.275 101.275 101.275S357.272 311.842 357.272 256s-45.433-101.275-101.275-101.275zm0 168.791c-37.23 0-67.516-30.287-67.516-67.516s30.287-67.516 67.516-67.516 67.516 30.287 67.516 67.516-30.286 67.516-67.516 67.516z"></path></symbol><symbol viewBox="0 0 384 320" id="icon-left-arrow"><path d="M368 144H48.8L171 27.6c6.4-6.1 6.6-16.2.6-22.6-6.1-6.4-16.2-6.6-22.6-.6L9.4 137.4c-6 6-9.4 14.1-9.4 22.6 0 8.5 3.3 16.6 9.7 22.9L149 315.6c3.1 3 7.1 4.4 11 4.4 4.2 0 8.4-1.7 11.6-5 6.1-6.4 5.8-16.5-.6-22.6L48.3 176H368c8.8 0 16-7.2 16-16s-7.2-16-16-16z"></path></symbol><symbol viewBox="0 0 512 512" id="icon-love"><path d="M469.585 80.732c-55.679-52.984-146.306-52.984-202.003-.012l-11.581 11-11.569-10.995c-55.703-52.979-146.318-52.973-202.021 0C15.061 106.739 0 141.244 0 177.874c0 36.642 15.061 71.141 42.415 97.166l201.219 191.033A17.886 17.886 0 0 0 256 471.007c4.449 0 8.899-1.647 12.366-4.94L469.585 275.04C496.933 249.021 512 214.517 512 177.88c0-36.636-15.067-71.135-42.415-97.148zm-24.756 168.259L256 428.269 67.177 248.997C47.026 229.835 35.93 204.576 35.93 177.88s11.096-51.955 31.247-71.117c21.019-20.001 48.625-29.995 76.237-29.995 27.618 0 55.236 10.006 76.255 30.007l23.953 22.75c6.934 6.593 17.815 6.593 24.75 0l23.959-22.762c42.044-39.996 110.448-39.996 152.492 0 20.145 19.163 31.247 44.421 31.247 71.117s-11.102 51.949-31.241 71.111z"></path></symbol><symbol viewBox="0 0 512 512" id="icon-mail"><path d="M467 80.609H45c-24.813 0-45 20.187-45 45v260.782c0 24.813 20.187 45 45 45h422c24.813 0 45-20.187 45-45V125.609c0-24.813-20.187-45-45-45zm-5.873 30l-6.006 5.001-181.267 150.941c-10.346 8.614-25.364 8.614-35.708 0L56.879 115.61l-6.006-5.001h410.254zM30 132.267L177.692 255.25 30 353.543V132.267zm437 269.124H45c-7.248 0-13.31-5.168-14.699-12.011l171.445-114.101 17.204 14.326a57.79 57.79 0 0 0 37.051 13.407 57.793 57.793 0 0 0 37.051-13.407l17.204-14.326 171.444 114.1c-1.39 6.845-7.452 12.012-14.7 12.012zm15-47.848l-147.692-98.292L482 132.267v221.276z"></path></symbol><symbol viewBox="0 0 256 320" id="icon-pause"><path d="M0 0h79v320H0zM177 0h79v320h-79z"></path></symbol><symbol viewBox="0 0 528 528" id="icon-phone"><path d="M379.5 0h-231C121.204 0 99 22.204 99 49.5v429c0 27.296 22.204 49.5 49.5 49.5h231c27.296 0 49.5-22.204 49.5-49.5v-429C429 22.204 406.796 0 379.5 0zm-231 33h231c9.104 0 16.5 7.396 16.5 16.5V396H132V49.5c0-9.104 7.396-16.5 16.5-16.5zm231 462h-231c-9.104 0-16.5-7.396-16.5-16.5V429h264v49.5c0 9.104-7.396 16.5-16.5 16.5z"></path><path d="M275.667 450.333c6.444 6.444 6.444 16.891 0 23.335s-16.891 6.444-23.335 0-6.444-16.891 0-23.335 16.891-6.444 23.335 0"></path></symbol><symbol viewBox="0 0 512 512" id="icon-place"><path d="M425.951 89.021C386.864 32.451 324.917 0 256.006 0S125.148 32.451 86.061 89.021c-38.895 56.284-47.876 127.541-24.072 190.496 6.367 17.192 16.488 33.895 30.01 49.547l150.378 176.634A17.895 17.895 0 0 0 256.006 512a17.892 17.892 0 0 0 13.629-6.302l150.336-176.586c13.582-15.742 23.69-32.427 30.004-49.481 23.852-63.069 14.871-134.326-24.024-190.61zm-9.5 178.072c-4.869 13.158-12.818 26.167-23.613 38.68-.03.03-.06.06-.084.096L256.006 466.487 119.174 305.768c-10.789-12.502-18.738-25.51-23.655-38.794-19.686-52.065-12.215-110.981 19.991-157.592 32.307-46.76 83.519-73.578 140.496-73.578 56.976 0 108.182 26.817 140.49 73.578 32.212 46.611 39.689 105.527 19.955 157.711z"></path><path d="M256.006 106.219c-55.276 0-100.252 44.97-100.252 100.252s44.97 100.252 100.252 100.252 100.252-44.97 100.252-100.252c0-55.276-44.976-100.252-100.252-100.252zm0 164.699c-35.536 0-64.448-28.912-64.448-64.448 0-35.536 28.912-64.448 64.448-64.448 35.536 0 64.448 28.912 64.448 64.448s-28.912 64.448-64.448 64.448z"></path></symbol><symbol viewBox="0 0 21.2 24.9" id="icon-play"><path d="M19.8 9.9L4.6.5C3.2-.4 1.3 0 .4 1.4.1 1.9 0 2.5 0 3v18.8c0 1.7 1.3 3 3 3 .6 0 1.1-.1 1.6-.4L19.8 15c1.4-.9 1.8-2.7 1-4.1-.3-.4-.6-.7-1-1z"></path></symbol><symbol id="icon-poly"><path fill-rule="evenodd" d="M24.149 54.003L.824 40.503v-27L24.149.003l23.324 13.5v27l-23.324 13.5z"></path></symbol><symbol viewBox="0 0 359.967 359.967" id="icon-profit"><path d="M269.967 136.038V89.996c0-22.002-15.426-41.832-43.436-55.836-24.705-12.352-57.217-19.155-91.547-19.155-34.334 0-66.847 6.803-91.551 19.155C15.425 48.164 0 67.994 0 89.996V269.97c0 22.003 15.425 41.832 43.434 55.837 24.704 12.352 57.217 19.154 91.551 19.154 26.155 0 51.089-3.902 72.629-11.302 14.236 7.224 30.327 11.302 47.354 11.302 57.897 0 105-47.103 105-105-.001-52.804-39.184-96.622-90.001-103.923zM30 198.013c4.091 2.765 8.567 5.378 13.434 7.811 24.704 12.352 57.218 19.155 91.551 19.155 5.414 0 10.796-.179 16.128-.516a105.498 105.498 0 0 0-1.146 15.499c0 4.899.345 9.72.998 14.442a224.76 224.76 0 0 1-15.98.566C74.897 254.971 30 231.217 30 209.979v-11.966zm130.833-4.53a221.616 221.616 0 0 1-25.849 1.495C74.897 194.979 30 171.226 30 149.988v-11.966c4.091 2.765 8.567 5.378 13.434 7.81 24.704 12.353 57.218 19.155 91.551 19.155 18.472 0 36.403-1.986 52.89-5.73a105.661 105.661 0 0 0-27.042 34.226zM134.984 45.005c60.086 0 104.982 23.753 104.982 44.991s-44.896 44.992-104.982 44.992C74.897 134.988 30 111.234 30 89.996c0-21.238 44.897-44.991 104.984-44.991zM30 269.971v-11.965c4.091 2.765 8.567 5.377 13.434 7.81 24.704 12.352 57.217 19.155 91.551 19.155 8.28 0 16.502-.407 24.573-1.194a105.363 105.363 0 0 0 17.943 26.99c-13.367 2.737-27.84 4.195-42.517 4.195C74.897 314.962 30 291.208 30 269.971zm224.967 44.991c-41.355 0-75-33.645-75-75 0-41.238 33.457-74.802 74.652-74.991.117.003.23.018.348.018s.23-.015.348-.018c41.195.189 74.652 33.753 74.652 74.991 0 41.355-33.645 75-75 75z"></path></symbol><symbol viewBox="0 0 512 431" id="icon-telegram"><path d="M470.4 4.9L16.8 180.7c-18.3 8.2-24.4 24.6-4.4 33.5l116.4 37.2L410.2 76.6c15.4-11 31.1-8 17.6 4l-241.7 220-7.6 93.1c7 14.4 19.9 14.4 28.1 7.3l66.9-63.6L388 423.6c26.6 15.8 41.1 5.6 46.8-23.4l75.1-357.5c7.7-35.8-5.6-51.5-39.5-37.8z"></path></symbol><symbol viewBox="0 0 799.9 476.1" id="icon-vk"><path d="M781.8 32.7c-9 28.3-21.1 52.9-36.3 75.3l.6-1c-14.9 24.9-32.8 53.6-53.5 86.3-17.8 25.8-27.2 39.1-28.2 40-4.6 5.8-7.8 12.8-8.9 20.6v.2c.9 7.1 4.2 13.2 8.9 17.8l13.3 14.9C749 360.1 789.1 410.7 798 438.4c1.2 3.1 1.8 6.6 1.8 10.3 0 6.5-2.1 12.4-5.6 17.3l.1-.1c-5.9 6-14.1 9.8-23.1 9.8-1 0-2 0-3-.1h.1-87.7-.2c-11.2 0-21.6-3.9-29.7-10.5l.1.1c-11.8-9.7-22.3-20.2-31.7-31.6l-.3-.4c-15.4-17.4-29-32-40.9-43.8-39.6-37.6-68.8-56.5-87.7-56.5-.7-.1-1.5-.1-2.3-.1-5.5 0-10.6 1.7-14.9 4.6l.1-.1c-3.5 4.3-5.6 9.9-5.6 16 0 1.2.1 2.3.2 3.5v-.1c-.9 10.5-1.4 22.6-1.4 34.9 0 4 .1 7.9.2 11.8v-.6 38.6c.3 1.6.5 3.4.5 5.2 0 8.1-3.7 15.3-9.4 20-12.9 5.9-28 9.4-43.9 9.4-3.4 0-6.7-.2-10-.5h.4c-52.5-1-101.1-16.4-142.5-42.3l1.2.7c-50.4-30.6-92.1-70.4-123.9-117.5l-.9-1.4c-30.2-40.1-58.4-85.3-82.4-133.1l-2.3-5.1c-14-26.7-28.6-59.6-41.1-93.4l-2-6.2C5.3 62.2 1.6 44.6.1 26.3l-.1-.9C0 8.6 9.9.2 29.7.2h87.7c.8-.1 1.7-.1 2.7-.1 8.3 0 15.9 2.8 21.9 7.6v-.1c6.7 7.3 11.6 16.3 14 26.3l.1.4c16.1 45.6 33.2 83.8 52.9 120.5l-2.2-4.6c16.1 32.3 33.8 60.2 54.1 85.9l-.8-1c17.8 21.8 31.6 32.7 41.6 32.7h1.1c4.9 0 9.2-2.7 11.6-6.7v-.1c2.5-6.3 3.9-13.7 3.9-21.4 0-1.6-.1-3.3-.2-4.9v.2-129.2c-.7-15.2-4.4-29.5-10.7-42.2l.3.6c-4.1-8.8-9.1-16.4-15-23.2l.1.1c-5.5-5.5-9.2-12.6-10.4-20.6v-.2c0-5.7 2.6-10.8 6.7-14.1 4-3.7 9.4-5.9 15.3-5.9h138.5c.7-.1 1.6-.1 2.4-.1 6.5 0 12.3 2.9 16.2 7.5 3.4 6.3 5.5 13.8 5.5 21.7 0 1.3-.1 2.5-.2 3.7v-.2 172.4c-.1.8-.1 1.7-.1 2.7 0 6.1 1.7 11.9 4.6 16.8l-.1-.1c2.4 3.6 6.5 5.9 11.1 5.9 5.9-.4 11.2-2.3 15.7-5.4l-.1.1c9.1-6.2 16.9-13.3 23.6-21.4l.1-.2c20.2-22.9 38.9-48.1 55.2-75l1.3-2.3c11.5-19 23.9-42.4 35.1-66.4l2.1-4.9 14.9-29.7c5.2-14.9 19-25.3 35.3-25.3h1.9-.1H755c23.8 0 32.7 10.9 26.8 32.7z"></path></symbol><symbol viewBox="0 0 800 800" id="icon-whatsapp"><path d="M632.8 564.8c-9.6 27.3-48 49.9-78.5 56.5-20.9 4.4-48.2 8-140.1-30.1C311 548.4 167.6 396 167.6 294.6c0-51.6 29.8-111.7 81.8-111.7 25 0 30.6.5 38.8 20.3 9.6 23.3 33.2 80.7 36 86.5 11.6 24.1-11.8 38.2-28.7 59.3-5.4 6.3-11.5 13.2-4.7 24.9 6.8 11.5 30.3 49.9 64.9 80.6 44.6 39.8 80.8 52.5 93.8 57.9 9.6 4 21.2 3.1 28.2-4.5 8.9-9.6 20-25.6 31.3-41.4 8-11.3 18.1-12.7 28.7-8.7 7.2 2.5 98.2 44.7 102 51.5 2.8 5 2.8 28.3-6.9 55.5M400.1 0h-.2C179.4 0 0 179.4 0 400c0 87.5 28.2 168.6 76.2 234.4L26.4 783l153.7-49.1c63.2 41.9 138.7 66.1 220 66.1C620.6 800 800 620.6 800 400S620.6 0 400.1 0" fill-rule="evenodd" clip-rule="evenodd"></path></symbol></svg>