<?xml version="1.0" encoding="utf-8"?>
<!-- Generator: Adobe Illustrator 23.0.3, SVG Export Plug-In . SVG Version: 6.00 Build 0)  -->
<svg version="1.1" id="Layer_1" xmlns="http://www.w3.org/2000/svg" xmlns:xlink="http://www.w3.org/1999/xlink" x="0px" y="0px"
	 viewBox="0 0 512 512" style="enable-background:new 0 0 512 512;" xml:space="preserve">
<style type="text/css">
	.st0{fill:#E0B394;}
	.st1{fill:#9B2523;}
	.st2{fill:#E21612;}
	.st3{fill:#F7CBA4;}
</style>
<path class="st0" d="M386.6,309.1l28.7-59.6c5.9-12.2,20.1-17.7,32.6-12.7c0.1,0,0.1,0,0.2,0.1c13.2,5.4,19.5,20.4,14.1,33.6
	l-5.9,14.3"/>
<path class="st1" d="M245.3,283c-39.4-29.3-72.4-67.8-72.4-106.9c0-43.9,30.3-79.5,67.6-79.5c29.8,0,54,28.5,54,63.6
	c0-35.1,24.2-63.6,54-63.6c21.8,0,41.2,12.2,53.5,31c8.8,13.4,14,30.3,14,48.5c0,54.9-65.1,108.6-121.6,137.5
	C278.2,305.3,261.2,294.9,245.3,283z"/>
<path class="st2" d="M264.3,283c-24.2-29.3-44.5-67.8-44.5-106.9c0-38.3,14.2-70.3,33-77.9c-4-1.1-8.1-1.7-12.3-1.7
	c-37.3,0-67.6,35.6-67.6,79.5c0,39.1,33,77.6,72.4,106.9c15.9,11.9,32.9,22.3,49.2,30.6C284.5,305.3,274.1,294.9,264.3,283z"/>
<path class="st3" d="M492.2,338.5l-170.2,71c-17.1,7.1-36.2,7.9-53.8,2.1L91.4,353.3c-9.1-3-19-2.5-27.8,1.3l-7,3.1l-40-92.8
	L0,226.3L83,171c25.3-16.8,57-21.7,85.7-11.8c1.2,0.4,2.3,0.8,3.5,1.3l156,59.9c7.1,2.7,12.3,8.1,15.1,14.5c2.9,6.6,3.1,14.3,0,21.4
	c-5.6,12.9-20.1,19.3-33.4,14.7l-99-33.9c-6.1-2.1-12.5-1.7-18,0.7c-6.8,2.9-12.2,8.8-14.3,16.5c-3.3,12.6,3.6,25.7,15.9,30L308,324
	c10.1,3.5,21.1,3.5,31.2,0l130.1-45.5c16-5.6,33.5,2.1,40.1,17.6c0,0.1,0.1,0.2,0.1,0.2C516.4,312.7,508.7,331.6,492.2,338.5z"/>
<path class="st0" d="M172.2,160.5c0,0-116.2,30-152.4,99c-1,2-2.1,3.8-3.1,5.5L0,226.3L83,171c25.3-16.8,57-21.7,85.7-11.8
	C169.9,159.6,171,160,172.2,160.5z"/>
</svg>
