<?xml version="1.0" encoding="iso-8859-1"?>
<!-- Generator: Adobe Illustrator 19.0.0, SVG Export Plug-In . SVG Version: 6.00 Build 0)  -->
<svg version="1.1" id="Capa_1" xmlns="http://www.w3.org/2000/svg" xmlns:xlink="http://www.w3.org/1999/xlink" x="0px" y="0px"
	 viewBox="0 0 398.5 398.5" style="enable-background:new 0 0 398.5 398.5;" xml:space="preserve">
<path style="fill:#FFE600;" d="M329.624,234.946l-4.664-11.923c11.827-7.634,21.779-17.388,29.606-28.515l11.771,5.151
	c5.559,2.432,12.037-0.102,14.469-5.661l8.525-19.48c2.432-5.559-0.101-12.037-5.659-14.469l-11.771-5.151
	c2.862-13.3,3.275-27.226,0.857-41.095l11.923-4.664c5.651-2.21,8.439-8.583,6.229-14.234l-7.748-19.799
	c-2.21-5.651-8.583-8.439-14.234-6.229l-11.923,4.664c-7.634-11.827-17.388-21.779-28.515-29.606l5.151-11.771
	c2.432-5.559-0.101-12.037-5.659-14.469l-19.48-8.525c-5.559-2.432-12.037,0.101-14.469,5.661l-5.151,11.771
	c-13.3-2.862-27.226-3.275-41.095-0.857l-4.664-11.923c-2.21-5.651-8.583-8.439-14.234-6.229l-19.802,7.747
	c-5.651,2.21-8.439,8.583-6.229,14.234l4.664,11.923c-11.827,7.634-21.779,17.388-29.606,28.515l-11.771-5.151
	c-5.559-2.432-12.037,0.101-14.469,5.659L143.15,90c-2.432,5.559,0.102,12.037,5.659,14.469l11.771,5.151
	c-2.862,13.3-3.275,27.226-0.857,41.095l-11.923,4.664c-5.651,2.21-8.439,8.583-6.229,14.234l7.747,19.802
	c2.21,5.651,8.583,8.439,14.234,6.229l11.923-4.664c7.634,11.827,17.388,21.779,28.515,29.606l-5.151,11.771
	c-2.432,5.559,0.102,12.037,5.659,14.469l19.48,8.525c5.559,2.432,12.037-0.101,14.469-5.659l5.151-11.771
	c13.3,2.862,27.226,3.275,41.095,0.857l4.664,11.923c2.21,5.651,8.583,8.439,14.234,6.229l19.802-7.747
	C329.045,246.969,331.834,240.597,329.624,234.946z M231.009,146.042c-7.612-19.458,1.992-41.402,21.449-49.014
	c19.458-7.612,41.402,1.992,49.014,21.449c7.612,19.458-1.992,41.402-21.449,49.014C260.565,175.103,238.621,165.5,231.009,146.042z
	"/>
<path style="fill:#602F75;" d="M299.614,264.507c-7.127,0-13.867-4.301-16.613-11.32l-2.679-6.861
	c-10.834,1.34-21.76,1.12-32.647-0.686l-2.973,6.787c-1.906,4.354-5.4,7.714-9.827,9.446c-4.434,1.727-9.267,1.633-13.633-0.273
	l-19.473-8.52c-4.367-1.906-7.719-5.4-9.453-9.834c-1.734-4.427-1.633-9.274,0.273-13.633l2.966-6.781
	c-8.687-6.753-16.28-14.633-22.659-23.513L166.042,202c-4.424,1.727-9.267,1.633-13.629-0.266c-4.361-1.906-7.716-5.4-9.446-9.834
	l-7.747-19.801c-1.734-4.434-1.637-9.274,0.27-13.633c1.91-4.361,5.4-7.714,9.834-9.446l6.851-2.679
	c-1.343-10.841-1.113-21.78,0.689-32.647l-6.787-2.973c-8.994-3.941-13.111-14.461-9.18-23.453l8.53-19.487
	c1.906-4.354,5.396-7.714,9.83-9.446c4.427-1.727,9.267-1.633,13.629,0.273l6.784,2.966c6.753-8.687,14.633-16.28,23.513-22.659
	l-2.679-6.854c-1.734-4.434-1.64-9.274,0.266-13.626c1.906-4.361,5.4-7.714,9.834-9.453l19.801-7.747
	c4.441-1.727,9.281-1.647,13.633,0.273c4.361,1.906,7.714,5.4,9.446,9.827l2.679,6.861c10.827-1.34,21.767-1.12,32.647,0.686
	l2.973-6.787c1.906-4.354,5.4-7.714,9.827-9.446c4.434-1.727,9.267-1.626,13.633,0.273l19.473,8.52
	c4.367,1.906,7.719,5.4,9.453,9.834c1.734,4.427,1.633,9.274-0.273,13.633l-2.966,6.781c8.687,6.753,16.28,14.633,22.659,23.513
	l6.854-2.679c4.427-1.727,9.267-1.64,13.626,0.266c4.361,1.906,7.714,5.4,9.453,9.834l7.747,19.801
	c1.734,4.434,1.633,9.274-0.273,13.633c-1.906,4.359-5.4,7.714-9.827,9.446l-6.861,2.679c1.347,10.841,1.113,21.78-0.686,32.647
	l6.787,2.973c4.354,1.906,7.714,5.4,9.446,9.827c1.734,4.427,1.633,9.274-0.273,13.633l-8.52,19.473
	c-1.906,4.367-5.4,7.719-9.834,9.453c-4.427,1.727-9.267,1.626-13.633-0.273l-6.781-2.966c-6.753,8.687-14.633,16.28-23.513,22.659
	l2.679,6.854c1.734,4.434,1.64,9.274-0.266,13.626c-1.906,4.361-5.4,7.714-9.834,9.453l-19.801,7.747
	C303.954,264.113,301.768,264.507,299.614,264.507z M284.701,231.946c2.767,0,5.313,1.686,6.354,4.34l4.666,11.926
	c0.833,2.14,3.246,3.18,5.393,2.353l19.794-7.747c2.133-0.833,3.193-3.253,2.353-5.386l0,0l-4.659-11.919
	c-1.179-3.026-0.073-6.46,2.654-8.219c10.88-7.026,20.207-16.014,27.727-26.713c1.874-2.661,5.347-3.627,8.327-2.326l11.767,5.154
	c1.014,0.447,2.161,0.466,3.18,0.06c1.039-0.399,1.853-1.186,2.301-2.207l8.52-19.473c0.92-2.106-0.039-4.56-2.147-5.48
	l-11.767-5.154c-2.973-1.3-4.613-4.514-3.934-7.687c2.753-12.807,3.021-25.76,0.8-38.487c-0.553-3.2,1.213-6.347,4.239-7.533
	l11.926-4.666c1.033-0.399,1.847-1.186,2.294-2.2c0.447-1.021,0.466-2.147,0.06-3.186l-7.747-19.801
	c-0.833-2.147-3.253-3.214-5.386-2.353L359.496,79.9c-3.014,1.167-6.46,0.073-8.219-2.654c-7.026-10.88-16.014-20.207-26.713-27.727
	c-2.654-1.867-3.627-5.354-2.326-8.327l5.154-11.767c0.447-1.014,0.466-2.147,0.06-3.18c-0.399-1.039-1.186-1.853-2.207-2.301
	l-19.473-8.52c-2.099-0.893-4.56,0.039-5.48,2.147l-5.154,11.767c-1.307,2.966-4.514,4.627-7.687,3.934
	c-12.807-2.753-25.754-3.026-38.487-0.8c-3.154,0.532-6.347-1.213-7.533-4.239l-4.666-11.926c-0.399-1.033-1.186-1.847-2.2-2.294
	c-1.014-0.447-2.154-0.466-3.186-0.06l-19.801,7.747c-2.133,0.833-3.193,3.253-2.354,5.386l4.659,11.919
	c1.179,3.026,0.073,6.46-2.654,8.219c-10.88,7.026-20.207,16.014-27.727,26.713c-1.874,2.654-5.361,3.613-8.327,2.326l-11.767-5.154
	c-1.024-0.447-2.15-0.466-3.18-0.06c-1.036,0.399-1.85,1.186-2.297,2.207l-8.527,19.48c-0.916,2.094,0.043,4.553,2.147,5.473
	l11.769,5.154c2.973,1.3,4.62,4.519,3.937,7.694c-2.756,12.8-3.026,25.747-0.807,38.48c0.556,3.2-1.217,6.347-4.236,7.533
	l-11.919,4.666c-1.039,0.399-1.853,1.186-2.301,2.2c-0.444,1.021-0.466,2.154-0.063,3.186l7.747,19.801
	c0.406,1.033,1.19,1.853,2.207,2.294c1.017,0.447,2.137,0.461,3.18,0.067l11.923-4.666c3.014-1.161,6.46-0.08,8.219,2.654
	c7.026,10.88,16.014,20.207,26.713,27.727c2.654,1.867,3.627,5.354,2.326,8.327l-5.154,11.767c-0.447,1.014-0.466,2.147-0.06,3.18
	c0.399,1.039,1.186,1.853,2.207,2.301l19.473,8.52c2.113,0.906,4.567-0.039,5.48-2.147l5.154-11.767
	c1.3-2.966,4.494-4.654,7.687-3.934c12.807,2.76,25.754,3.026,38.487,0.8C283.914,231.98,284.307,231.946,284.701,231.946z
	 M266.295,176.919c-17.853,0-34.753-10.786-41.646-28.394l0,0c-8.967-22.934,2.393-48.887,25.327-57.859
	c22.934-8.967,48.881,2.393,57.859,25.327c8.967,22.934-2.393,48.887-25.327,57.859
	C277.181,175.933,271.695,176.919,266.295,176.919z M237.367,143.552c6.226,15.92,24.247,23.806,40.166,17.58
	c15.92-6.226,23.806-24.247,17.58-40.166c-6.226-15.92-24.253-23.82-40.166-17.58C239.027,109.613,231.141,127.632,237.367,143.552
	L237.367,143.552z"/>
<path style="fill:#EA3457;" d="M196.127,279.033H186.02c-2.212-10.892-6.519-21.012-12.45-29.967l7.173-7.173
	c3.388-3.388,3.388-8.878,0-12.266l-11.87-11.87c-3.388-3.388-8.878-3.388-12.266,0l-7.173,7.173
	c-8.955-5.931-19.075-10.238-29.967-12.45v-10.107c0-4.791-3.883-8.673-8.673-8.673H94.007c-4.791,0-8.673,3.883-8.673,8.673v10.107
	c-10.892,2.212-21.012,6.519-29.967,12.45l-7.173-7.173c-3.388-3.388-8.878-3.388-12.266,0l-11.87,11.87
	c-3.388,3.388-3.388,8.878,0,12.266l7.173,7.173c-5.931,8.955-10.238,19.075-12.45,29.967H8.673c-4.791,0-8.673,3.883-8.673,8.673
	v16.787c0,4.791,3.883,8.673,8.673,8.673H18.78c2.212,10.892,6.519,21.012,12.45,29.967l-7.173,7.173
	c-3.388,3.388-3.388,8.878,0,12.266l11.87,11.87c3.388,3.388,8.878,3.388,12.266,0l7.173-7.173
	c8.955,5.931,19.075,10.238,29.967,12.45v10.107c0,4.791,3.883,8.673,8.673,8.673h16.787c4.791,0,8.673-3.883,8.673-8.673v-10.107
	c10.892-2.212,21.012-6.519,29.967-12.45l7.173,7.173c3.388,3.388,8.878,3.388,12.266,0l11.87-11.87
	c3.388-3.388,3.388-8.878,0-12.266l-7.173-7.173c5.931-8.955,10.238-19.075,12.45-29.967h10.107c4.791,0,8.673-3.883,8.673-8.673
	v-16.787C204.8,282.915,200.917,279.033,196.127,279.033z M102.4,325.966c-16.495,0-29.867-13.372-29.867-29.867
	c0-16.495,13.372-29.867,29.867-29.867s29.867,13.372,29.867,29.867C132.267,312.594,118.895,325.966,102.4,325.966z"/>
<g>
	<circle style="fill:#00E7FF;" cx="81.917" cy="139.089" r="34.133"/>
	<path style="fill:#00E7FF;" d="M81.92,180.046c-22.586,0-40.96-18.374-40.96-40.96s18.374-40.96,40.96-40.96
		s40.96,18.374,40.96,40.96S104.508,180.046,81.92,180.046z M81.92,111.779c-15.056,0-27.307,12.247-27.307,27.307
		s12.25,27.307,27.307,27.307s27.307-12.247,27.307-27.307S96.978,111.779,81.92,111.779z"/>
</g>
<g>
</g>
<g>
</g>
<g>
</g>
<g>
</g>
<g>
</g>
<g>
</g>
<g>
</g>
<g>
</g>
<g>
</g>
<g>
</g>
<g>
</g>
<g>
</g>
<g>
</g>
<g>
</g>
<g>
</g>
</svg>
