<?xml version="1.0" encoding="utf-8"?>
<!-- Generator: Adobe Illustrator 24.0.2, SVG Export Plug-In . SVG Version: 6.00 Build 0)  -->
<svg version="1.1" id="Layer" xmlns="http://www.w3.org/2000/svg" xmlns:xlink="http://www.w3.org/1999/xlink" x="0px" y="0px"
	 viewBox="0 0 384 320" style="enable-background:new 0 0 384 320;" xml:space="preserve">
<path d="M368,144H48.8L171,27.6c6.4-6.1,6.6-16.2,0.6-22.6c-6.1-6.4-16.2-6.6-22.6-0.6L9.4,137.4c-6,6-9.4,14.1-9.4,22.6
	c0,8.5,3.3,16.6,9.7,22.9L149,315.6c3.1,3,7.1,4.4,11,4.4c4.2,0,8.4-1.7,11.6-5c6.1-6.4,5.8-16.5-0.6-22.6L48.3,176H368
	c8.8,0,16-7.2,16-16S376.8,144,368,144L368,144z"/>
</svg>
