<?xml version="1.0" encoding="utf-8"?>
<!-- Generator: Adobe Illustrator 25.4.1, SVG Export Plug-In . SVG Version: 6.00 Build 0)  -->
<svg version="1.1" id="Слой_1" xmlns="http://www.w3.org/2000/svg" xmlns:xlink="http://www.w3.org/1999/xlink" x="0px" y="0px"
	 viewBox="0 0 799.9 476.1" style="enable-background:new 0 0 799.9 476.1;" xml:space="preserve">
<path d="M781.8,32.7c-9,28.3-21.1,52.9-36.3,75.3l0.6-1c-14.9,24.9-32.8,53.6-53.5,86.3c-17.8,25.8-27.2,39.1-28.2,40
	c-4.6,5.8-7.8,12.8-8.9,20.6l0,0.2c0.9,7.1,4.2,13.2,8.9,17.8l13.3,14.9C749,360.1,789.1,410.7,798,438.4c1.2,3.1,1.8,6.6,1.8,10.3
	c0,6.5-2.1,12.4-5.6,17.3l0.1-0.1c-5.9,6-14.1,9.8-23.1,9.8c-1,0-2,0-3-0.1h0.1h-87.7c0,0-0.1,0-0.2,0c-11.2,0-21.6-3.9-29.7-10.5
	l0.1,0.1c-11.8-9.7-22.3-20.2-31.7-31.6l-0.3-0.4c-15.4-17.4-29-32-40.9-43.8c-39.6-37.6-68.8-56.5-87.7-56.5
	c-0.7-0.1-1.5-0.1-2.3-0.1c-5.5,0-10.6,1.7-14.9,4.6l0.1-0.1c-3.5,4.3-5.6,9.9-5.6,16c0,1.2,0.1,2.3,0.2,3.5v-0.1
	c-0.9,10.5-1.4,22.6-1.4,34.9c0,4,0.1,7.9,0.2,11.8v-0.6v38.6c0.3,1.6,0.5,3.4,0.5,5.2c0,8.1-3.7,15.3-9.4,20l0,0
	c-12.9,5.9-28,9.4-43.9,9.4c-3.4,0-6.7-0.2-10-0.5l0.4,0c-52.5-1-101.1-16.4-142.5-42.3l1.2,0.7c-50.4-30.6-92.1-70.4-123.9-117.5
	l-0.9-1.4c-30.2-40.1-58.4-85.3-82.4-133.1l-2.3-5.1c-14-26.7-28.6-59.6-41.1-93.4l-2-6.2C5.3,62.2,1.6,44.6,0.1,26.3L0,25.4
	C0,8.6,9.9,0.2,29.7,0.2h87.7c0.8-0.1,1.7-0.1,2.7-0.1c8.3,0,15.9,2.8,21.9,7.6L142,7.6c6.7,7.3,11.6,16.3,14,26.3l0.1,0.4
	c16.1,45.6,33.2,83.8,52.9,120.5l-2.2-4.6c16.1,32.3,33.8,60.2,54.1,85.9l-0.8-1c17.8,21.8,31.6,32.7,41.6,32.7c0.3,0,0.7,0,1.1,0
	c4.9,0,9.2-2.7,11.6-6.7l0-0.1c2.5-6.3,3.9-13.7,3.9-21.4c0-1.6-0.1-3.3-0.2-4.9v0.2V105.7c-0.7-15.2-4.4-29.5-10.7-42.2l0.3,0.6
	c-4.1-8.8-9.1-16.4-15-23.2l0.1,0.1c-5.5-5.5-9.2-12.6-10.4-20.6l0-0.2c0-5.7,2.6-10.8,6.7-14.1l0,0c4-3.7,9.4-5.9,15.3-5.9h0.3
	h138.2c0.7-0.1,1.6-0.1,2.4-0.1c6.5,0,12.3,2.9,16.2,7.5l0,0c3.4,6.3,5.5,13.8,5.5,21.7c0,1.3-0.1,2.5-0.2,3.7v-0.2v172.4
	c-0.1,0.8-0.1,1.7-0.1,2.7c0,6.1,1.7,11.9,4.6,16.8l-0.1-0.1c2.4,3.6,6.5,5.9,11.1,5.9h0c5.9-0.4,11.2-2.3,15.7-5.4l-0.1,0.1
	c9.1-6.2,16.9-13.3,23.6-21.4l0.1-0.2c20.2-22.9,38.9-48.1,55.2-75l1.3-2.3c11.5-19,23.9-42.4,35.1-66.4l2.1-4.9l14.9-29.7
	c5.2-14.9,19-25.3,35.3-25.3c0.6,0,1.3,0,1.9,0h-0.1h87.7C778.8,0,787.7,10.9,781.8,32.7L781.8,32.7z"/>
</svg>
