<?xml version="1.0" standalone="no"?>
<!DOCTYPE svg PUBLIC "-//W3C//DTD SVG 20010904//EN"
 "http://www.w3.org/TR/2001/REC-SVG-20010904/DTD/svg10.dtd">
<svg version="1.0" id="svgPentagon" xmlns="http://www.w3.org/2000/svg"
 width="716.000000pt" height="801.000000pt" viewBox="0 0 716.000000 801.000000"
 preserveAspectRatio="xMidYMid meet">

<g transform="translate(0.000000,801.000000) scale(0.100000,-0.100000)"
fill="#000000" stroke="none">
<path d="M3415 7981 c-179 -49 -107 -10 -1425 -771 -289 -167 -635 -367 -770
-445 -135 -78 -337 -195 -450 -260 -113 -65 -232 -136 -265 -158 -88 -59 -213
-167 -271 -234 -115 -132 -159 -213 -197 -362 l-22 -86 0 -1660 0 -1660 23
-89 c12 -49 35 -116 52 -150 70 -149 248 -335 430 -451 36 -23 342 -201 680
-397 2061 -1191 2005 -1159 2171 -1214 73 -24 100 -28 209 -28 118 0 131 2
232 36 160 55 90 17 1243 683 297 172 641 371 765 442 124 71 299 172 390 225
91 52 210 121 265 153 158 91 253 156 345 237 190 169 282 318 320 517 6 35
10 629 10 1705 0 1625 0 1652 -20 1736 -41 169 -141 321 -313 471 -133 118
-61 74 -1412 854 -126 73 -401 232 -610 352 -209 121 -454 263 -545 315 -351
202 -471 249 -650 255 -90 2 -130 -1 -185 -16z"/>
</g>
</svg>
